<svg xmlns="http://www.w3.org/2000/svg" width="40" height="40" viewBox="0 0 40 40">
  <defs>
    <style>
      .cls-1 {
        fill: #fff;
      }

      .cls-2 {
        fill: #1da1f2;
      }
    </style>
  </defs>
  <g id="btn-twitter" transform="translate(-1399 -28)">
    <rect id="Rectangle_100" data-name="Rectangle 100" class="cls-1" width="40" height="40" rx="5" transform="translate(1399 28)"/>
    <path id="twitter-square" class="cls-2" d="M35.714,32H4.286A4.287,4.287,0,0,0,0,36.286V67.714A4.287,4.287,0,0,0,4.286,72H35.714A4.287,4.287,0,0,0,40,67.714V36.286A4.287,4.287,0,0,0,35.714,32ZM31.348,46.179c.018.25.018.509.018.759,0,7.741-5.893,16.661-16.661,16.661a16.584,16.584,0,0,1-8.991-2.625,12.337,12.337,0,0,0,1.411.071,11.741,11.741,0,0,0,7.268-2.5A5.864,5.864,0,0,1,8.92,54.482a6.311,6.311,0,0,0,2.643-.107,5.856,5.856,0,0,1-4.688-5.75v-.071a5.852,5.852,0,0,0,2.643.741A5.843,5.843,0,0,1,6.911,44.42a5.783,5.783,0,0,1,.795-2.955,16.627,16.627,0,0,0,12.071,6.125,5.868,5.868,0,0,1,9.991-5.348,11.475,11.475,0,0,0,3.714-1.411,5.841,5.841,0,0,1-2.571,3.223,11.653,11.653,0,0,0,3.375-.911A12.326,12.326,0,0,1,31.348,46.179Z" transform="translate(1399 -4)"/>
  </g>
</svg>
