<svg xmlns="http://www.w3.org/2000/svg" xmlns:xlink="http://www.w3.org/1999/xlink" width="40" height="40" viewBox="0 0 40 40">
  <defs>
    <style>
      .cls-1 {
        fill: url(#linear-gradient);
      }

      .cls-2 {
        fill: #fff;
      }
    </style>
    <linearGradient id="linear-gradient" x1="0.5" x2="0.5" y2="1" gradientUnits="objectBoundingBox">
      <stop offset="0" stop-color="#ef083f"/>
      <stop offset="1" stop-color="#ffae44"/>
    </linearGradient>
  </defs>
  <g id="btn-instagram" transform="translate(-1797 -5)">
    <rect id="Rectangle_103" data-name="Rectangle 103" class="cls-1" width="40" height="40" rx="5" transform="translate(1797 5)"/>
    <path id="instagram" class="cls-2" d="M17.433,40.351a8.974,8.974,0,1,0,8.974,8.974A8.959,8.959,0,0,0,17.433,40.351Zm0,14.808a5.834,5.834,0,1,1,5.834-5.834A5.845,5.845,0,0,1,17.433,55.159ZM28.866,39.984a2.093,2.093,0,1,1-2.093-2.093A2.088,2.088,0,0,1,28.866,39.984Zm5.943,2.124c-.133-2.8-.773-5.287-2.827-7.333s-4.53-2.687-7.333-2.827c-2.89-.164-11.551-.164-14.44,0-2.8.133-5.279.773-7.333,2.819S.189,39.3.048,42.1c-.164,2.89-.164,11.551,0,14.44.133,2.8.773,5.287,2.827,7.333S7.4,66.561,10.209,66.7c2.89.164,11.551.164,14.44,0,2.8-.133,5.287-.773,7.333-2.827s2.687-4.53,2.827-7.333c.164-2.89.164-11.543,0-14.433ZM31.077,59.642a5.906,5.906,0,0,1-3.327,3.327c-2.3.914-7.771.7-10.317.7s-8.021.2-10.317-.7a5.906,5.906,0,0,1-3.327-3.327c-.914-2.3-.7-7.771-.7-10.317s-.2-8.021.7-10.317a5.906,5.906,0,0,1,3.327-3.327c2.3-.914,7.771-.7,10.317-.7s8.021-.2,10.317.7a5.906,5.906,0,0,1,3.327,3.327c.914,2.3.7,7.771.7,10.317S31.99,57.346,31.077,59.642Z" transform="translate(1799.075 -24.494)"/>
  </g>
</svg>
