<svg xmlns="http://www.w3.org/2000/svg" width="40" height="40" viewBox="0 0 40 40">
  <defs>
    <style>
      .cls-1 {
        fill: #fff;
      }

      .cls-2 {
        fill: red;
      }
    </style>
  </defs>
  <g id="btn-youtube" transform="translate(-1669 -35)">
    <rect id="Rectangle_102" data-name="Rectangle 102" class="cls-1" width="40" height="40" rx="5" transform="translate(1669 35)"/>
    <path id="youtube-square" class="cls-2" d="M16.679,47.188l8.5,4.83-8.5,4.83ZM40,36.286V67.714A4.287,4.287,0,0,1,35.714,72H4.286A4.287,4.287,0,0,1,0,67.714V36.286A4.287,4.287,0,0,1,4.286,32H35.714A4.287,4.287,0,0,1,40,36.286ZM36.25,52.027a42.9,42.9,0,0,0-.679-7.875A4.075,4.075,0,0,0,32.7,41.259c-2.527-.687-12.7-.687-12.7-.687s-10.17,0-12.7.688a4.075,4.075,0,0,0-2.875,2.893,42.85,42.85,0,0,0-.679,7.875A42.9,42.9,0,0,0,4.429,59.9,4.017,4.017,0,0,0,7.3,62.75c2.527.679,12.7.679,12.7.679s10.17,0,12.7-.687a4.017,4.017,0,0,0,2.875-2.848,42.771,42.771,0,0,0,.679-7.866Z" transform="translate(1669 3)"/>
  </g>
</svg>
