<svg xmlns="http://www.w3.org/2000/svg" width="150.898" height="86.56" viewBox="0 0 150.898 86.56">
  <g id="Group_182" data-name="Group 182" transform="translate(-586.804 -294.108)">
    <g id="Group_53" data-name="Group 53">
      <path id="Path_343" data-name="Path 343" d="M620.931,380.668,634.4,362.982V328.546l-13.467,17.685Z" fill="#bfbfbf"/>
      <path id="Path_344" data-name="Path 344" d="M620.931,311.794h0v34.437L634.4,328.546V294.108Z" fill="#b11f2a"/>
      <path id="Path_345" data-name="Path 345" d="M620.931,311.794H606.966l-10.081,34.437h24.046Z" fill="#ec2938"/>
      <path id="Path_346" data-name="Path 346" d="M596.885,346.231,586.8,380.668h34.127V346.231Z" fill="#fff"/>
    </g>
    <g id="Group_58" data-name="Group 58">
      <g id="Group_57" data-name="Group 57">
        <g id="Group_56" data-name="Group 56">
          <g id="Group_54" data-name="Group 54">
            <rect id="Rectangle_20" data-name="Rectangle 20" width="103.304" height="34.435" transform="translate(634.398 294.108)" fill="#ec2938"/>
            <rect id="Rectangle_21" data-name="Rectangle 21" width="103.304" height="34.435" transform="translate(634.398 328.543)" fill="#fff"/>
          </g>
          <g id="Group_55" data-name="Group 55">
            <path id="Path_347" data-name="Path 347" d="M649.431,311.326a12.326,12.326,0,0,1,11.738-12.25,12.973,12.973,0,1,0,0,24.5A12.325,12.325,0,0,1,649.431,311.326Z" fill="#fff"/>
            <path id="Path_348" data-name="Path 348" d="M656.724,306l.694,2.137h2.247l-1.818,1.321.695,2.137-1.818-1.321-1.818,1.321.694-2.137-1.818-1.321h2.247Z" fill="#fff"/>
            <path id="Path_349" data-name="Path 349" d="M670.531,306l.694,2.137h2.247l-1.818,1.321.694,2.137-1.818-1.321-1.818,1.321.694-2.137-1.818-1.321h2.247Z" fill="#fff"/>
            <path id="Path_350" data-name="Path 350" d="M663.628,300.827l.694,2.137h2.247l-1.818,1.321.694,2.137-1.818-1.321-1.818,1.321.694-2.137-1.818-1.321h2.247Z" fill="#fff"/>
            <path id="Path_351" data-name="Path 351" d="M667.946,314.156l.694,2.137h2.247l-1.818,1.321.694,2.137-1.818-1.321-1.818,1.321.694-2.137L665,316.293h2.247Z" fill="#fff"/>
            <path id="Path_352" data-name="Path 352" d="M659.309,314.156l.694,2.137h2.247l-1.818,1.321.695,2.137-1.818-1.321-1.818,1.321.695-2.137-1.818-1.321h2.247Z" fill="#fff"/>
          </g>
        </g>
      </g>
    </g>
  </g>
</svg>
