<svg xmlns="http://www.w3.org/2000/svg" width="150.671" height="86.56" viewBox="0 0 150.671 86.56">
  <g id="Group_181" data-name="Group 181" transform="translate(-405.077 -294.108)">
    <g id="Group_70" data-name="Group 70">
      <path id="Path_463" data-name="Path 463" d="M439.138,311.794v17.219l13.467-17.686V294.108Z" fill="#082377"/>
      <path id="Path_464" data-name="Path 464" d="M439.138,363.45l13.467-17.686V311.327l-13.467,17.686Z" fill="#a7021b"/>
      <path id="Path_465" data-name="Path 465" d="M439.138,380.668l13.467-17.686V345.764L439.138,363.45Z" fill="#082377"/>
    </g>
    <g id="Group_71" data-name="Group 71">
      <path id="Path_466" data-name="Path 466" d="M405.077,380.668H439.2V363.45H410.117Z" fill="#0a2f9f"/>
      <path id="Path_467" data-name="Path 467" d="M410.117,363.45H439.2V329.013H420.2Z" fill="#df0324"/>
      <path id="Path_468" data-name="Path 468" d="M420.2,329.013H439.2V311.794H425.239Z" fill="#0a2f9f"/>
    </g>
    <g id="Group_75" data-name="Group 75">
      <g id="Group_74" data-name="Group 74">
        <g id="Group_73" data-name="Group 73">
          <g id="Group_72" data-name="Group 72">
            <rect id="Rectangle_25" data-name="Rectangle 25" width="103.162" height="17.194" transform="translate(452.586 294.108)" fill="#0a2f9f"/>
            <rect id="Rectangle_26" data-name="Rectangle 26" width="103.162" height="17.194" transform="translate(452.586 345.69)" fill="#0a2f9f"/>
            <rect id="Rectangle_27" data-name="Rectangle 27" width="103.162" height="34.388" transform="translate(452.586 311.302)" fill="#df0324"/>
          </g>
          <path id="Path_469" data-name="Path 469" d="M526.328,340.583h-.98v-2.015a.108.108,0,0,0-.108-.107h-.97v-1.753a.107.107,0,0,0-.108-.107h-.973v-1.29a.108.108,0,0,0-.108-.107h-.6v-.981a.107.107,0,0,0-.108-.107h-.829c-.234-.04-.486-.351-.643-.589v-3.815l.7-.758a.1.1,0,0,0,.029-.073v-3.313a.107.107,0,0,0-.045-.087.106.106,0,0,0-.1-.015,1.371,1.371,0,0,0-.523.354v-.946a.106.106,0,0,0-.02-.062.393.393,0,0,0-.279-.16.367.367,0,0,0-.3.153.1.1,0,0,0-.026.069v.222h-.618v-1.4a.111.111,0,0,0-.107-.112.1.1,0,0,0-.106.1v.008a.323.323,0,0,1-.016.033l-.015.03a1.526,1.526,0,0,1-.111.209c-.129.2-.263.3-.421.288a.067.067,0,0,1-.037-.008s-.017-.034.025-.15a.788.788,0,0,1,.075-.143c.018-.029.036-.057.052-.087a1.434,1.434,0,0,0,.151-.734.632.632,0,0,0-.129-.457.1.1,0,0,0-.109-.026.108.108,0,0,0-.073.084.431.431,0,0,1-.174.281.089.089,0,0,1-.056.021c-.012-.012-.036-.081.169-.452l.006-.011a.97.97,0,0,0,0-.773.1.1,0,0,0-.1-.057.108.108,0,0,0-.093.075.99.99,0,0,1-.155.318c.008-.09.038-.231.059-.334a2.9,2.9,0,0,0,.078-.521,1.141,1.141,0,0,0-.1-.522.1.1,0,0,0-.109-.054.107.107,0,0,0-.09.081,2.564,2.564,0,0,1-.113.366,1.953,1.953,0,0,1-.039-.4c0-.323-.175-1.036-.687-1.166-.05-.257-.106-.517-.42-.517s-.37.26-.42.517c-.512.13-.687.843-.687,1.166a1.953,1.953,0,0,1-.039.4,2.564,2.564,0,0,1-.113-.366.108.108,0,0,0-.2-.027,1.141,1.141,0,0,0-.1.522,2.9,2.9,0,0,0,.078.521c.021.1.051.244.059.334a.99.99,0,0,1-.155-.318.109.109,0,0,0-.093-.075.105.105,0,0,0-.1.057.97.97,0,0,0,0,.773l.006.011c.205.371.181.44.169.452a.093.093,0,0,1-.057-.021.434.434,0,0,1-.173-.281.108.108,0,0,0-.073-.084.1.1,0,0,0-.109.026.636.636,0,0,0-.129.465,1.421,1.421,0,0,0,.151.726c.016.03.034.058.051.087a.794.794,0,0,1,.076.143c.042.116.025.149.025.149a.056.056,0,0,1-.037.009c-.158.009-.292-.087-.421-.288a1.519,1.519,0,0,1-.111-.209l-.015-.03c-.005-.01-.015-.029-.016-.025a.108.108,0,0,0-.215,0v2.515h-.8a.813.813,0,0,0-.314-.152.1.1,0,0,0-.09.021.108.108,0,0,0-.04.084v.1H509.03v-2.393a.106.106,0,0,0-.063-.1.107.107,0,0,0-.115.018l-.545.483a.113.113,0,0,0-.036.081v.414h-.278a.735.735,0,0,1-.246-.545c.027-.171.182-.319.46-.44a.108.108,0,0,0,.064-.1v-.859a.108.108,0,0,0-.1-.108c-.036,0-.331.009-.747.493a.343.343,0,0,0-.23-.115.293.293,0,0,0-.251.16.1.1,0,0,0-.018.058v.92h-.114v-1.062c.023-.027.079-.075.1-.1s.046-.04.056-.051c.03-.032.061-.061.093-.091a.782.782,0,0,0,.273-.406,1.7,1.7,0,0,0-.062-.845.106.106,0,0,0-.1-.071.109.109,0,0,0-.1.06c-.019.039-.037.079-.055.118a1.423,1.423,0,0,1-.153.284.214.214,0,0,1-.134.1v-.021c0-.091,0-.183,0-.274a.668.668,0,0,1,.21-.412l.023-.028a2.741,2.741,0,0,0,.338-.5,1.281,1.281,0,0,0-.1-1.094.105.105,0,0,0-.113-.044.106.106,0,0,0-.082.09,1.775,1.775,0,0,1-.165.581c-.045.088-.06.109-.1.115a.676.676,0,0,1-.129,0v-.541a1.7,1.7,0,0,0,.329-.744,1.347,1.347,0,0,0-.2-.747.107.107,0,0,0-.179.046c-.031.11-.056.209-.077.3-.041.164-.083.334-.13.36h-.155v-.443a1.643,1.643,0,0,0,.343-.755.627.627,0,0,0-.125-.445.107.107,0,0,0-.179.044,1.441,1.441,0,0,1-.2.441h-.2v-.211a.944.944,0,0,0,.357-.6.419.419,0,0,0-.169-.335.107.107,0,0,0-.143.008l-.217.217h-.053l.182-.761a.107.107,0,0,0-.021-.091.106.106,0,0,0-.084-.041h-.131l.089-.442a.108.108,0,0,0-.023-.09.1.1,0,0,0-.083-.039h-.14l.047-.3a.107.107,0,0,0-.106-.124h-.327l.065-.347a.109.109,0,0,0-.022-.089.11.11,0,0,0-.083-.038h-.314a.778.778,0,0,0-.084-.522.511.511,0,0,0-.385-.224.114.114,0,0,0-.037,0,.092.092,0,0,0-.033,0,.509.509,0,0,0-.385.224.779.779,0,0,0-.085.522h-.314a.107.107,0,0,0-.1.127l.065.347h-.327a.11.11,0,0,0-.082.038.107.107,0,0,0-.024.086l.047.3h-.14a.106.106,0,0,0-.083.039.1.1,0,0,0-.022.09l.088.442h-.131a.106.106,0,0,0-.084.041.1.1,0,0,0-.02.091l.181.761h-.052l-.217-.217a.109.109,0,0,0-.144-.008.419.419,0,0,0-.169.335.944.944,0,0,0,.357.6v.211h-.2a1.421,1.421,0,0,1-.2-.441.111.111,0,0,0-.077-.073.107.107,0,0,0-.1.029.619.619,0,0,0-.126.445,1.643,1.643,0,0,0,.343.755v.443h-.155c-.047-.026-.089-.2-.129-.36-.022-.088-.046-.187-.078-.3a.107.107,0,0,0-.179-.046,1.356,1.356,0,0,0-.2.747,1.706,1.706,0,0,0,.329.744v.541a.676.676,0,0,1-.129,0c-.039-.006-.054-.027-.1-.123a1.758,1.758,0,0,1-.159-.573.108.108,0,0,0-.082-.09.106.106,0,0,0-.114.044,1.284,1.284,0,0,0-.1,1.094,2.8,2.8,0,0,0,.338.5l.023.028a.675.675,0,0,1,.211.412c0,.091,0,.183,0,.274v.021a.216.216,0,0,1-.134-.1,1.423,1.423,0,0,1-.153-.284c-.018-.039-.036-.079-.055-.118a.11.11,0,0,0-.1-.06.107.107,0,0,0-.1.071,1.7,1.7,0,0,0-.062.845.778.778,0,0,0,.274.406c.031.03.062.059.092.091l.056.051a1.373,1.373,0,0,1,.1.1v1.062h-.114v-.92a.106.106,0,0,0-.017-.058.3.3,0,0,0-.252-.16.343.343,0,0,0-.23.115c-.416-.484-.711-.491-.747-.493a.108.108,0,0,0-.1.108v.859a.108.108,0,0,0,.064.1c.278.121.433.269.46.439a.73.73,0,0,1-.245.546h-.279v-.414a.109.109,0,0,0-.036-.081l-.544-.483a.109.109,0,0,0-.116-.018.108.108,0,0,0-.063.1v2.393h-4.142v-.1a.1.1,0,0,0-.04-.084.1.1,0,0,0-.09-.021.819.819,0,0,0-.314.152h-.8V323.7a.111.111,0,0,0-.107-.112.1.1,0,0,0-.107.1v.008a.33.33,0,0,1-.016.033l-.014.03a1.525,1.525,0,0,1-.112.209.5.5,0,0,1-.421.288.075.075,0,0,1-.037-.008s-.017-.034.025-.15a.792.792,0,0,1,.076-.143c.017-.029.035-.057.051-.087a1.434,1.434,0,0,0,.151-.734.627.627,0,0,0-.129-.457.1.1,0,0,0-.108-.026.108.108,0,0,0-.074.084.43.43,0,0,1-.173.281.092.092,0,0,1-.056.021c-.013-.012-.037-.081.168-.452l.006-.011a.966.966,0,0,0,0-.773.1.1,0,0,0-.1-.057.109.109,0,0,0-.093.075.991.991,0,0,1-.155.318c.009-.09.038-.231.059-.334a2.816,2.816,0,0,0,.078-.521,1.141,1.141,0,0,0-.1-.522.107.107,0,0,0-.2.027,2.846,2.846,0,0,1-.113.366,1.876,1.876,0,0,1-.04-.4c0-.323-.175-1.036-.687-1.166-.05-.257-.106-.517-.42-.517s-.37.26-.42.517c-.512.13-.687.843-.687,1.166a1.887,1.887,0,0,1-.039.4,2.56,2.56,0,0,1-.113-.366.107.107,0,0,0-.09-.081.108.108,0,0,0-.109.054,1.142,1.142,0,0,0-.1.522,2.9,2.9,0,0,0,.078.521c.022.1.051.244.06.334a.988.988,0,0,1-.156-.318.108.108,0,0,0-.2-.018.974.974,0,0,0,0,.773l.006.011c.206.371.181.44.17.452a.089.089,0,0,1-.057-.021.43.43,0,0,1-.174-.281.108.108,0,0,0-.182-.058.646.646,0,0,0-.129.465,1.442,1.442,0,0,0,.151.726c.017.03.034.058.052.087a.792.792,0,0,1,.076.143c.041.116.025.149.025.149a.062.062,0,0,1-.037.009c-.159.009-.293-.087-.422-.288a1.641,1.641,0,0,1-.111-.209l-.015-.03c-.005-.01-.014-.029-.015-.025a.107.107,0,0,0-.215,0v1.4h-.618v-.222a.1.1,0,0,0-.026-.069.37.37,0,0,0-.3-.153.4.4,0,0,0-.28.16.106.106,0,0,0-.02.062v.946a1.371,1.371,0,0,0-.523-.354.108.108,0,0,0-.141.1v3.313a.106.106,0,0,0,.029.073l.7.758v3.822c-.157.237-.406.542-.638.582h-.834a.107.107,0,0,0-.107.107v.981h-.6a.107.107,0,0,0-.107.107v1.29h-.974a.107.107,0,0,0-.108.107v1.753h-.97a.107.107,0,0,0-.107.107v2.015h-.981a.107.107,0,0,0-.107.108v2.122a.107.107,0,0,0,.107.108h44.323a.108.108,0,0,0,.108-.108v-2.122A.108.108,0,0,0,526.328,340.583Z" fill="#fff"/>
          <path id="Path_470" data-name="Path 470" d="M526.328,340.583h-.98v-2.015a.108.108,0,0,0-.108-.107h-.97v-1.753a.107.107,0,0,0-.108-.107h-.973v-1.29a.108.108,0,0,0-.108-.107h-.6v-.981a.107.107,0,0,0-.108-.107h-.829c-.234-.04-.486-.351-.643-.589v-3.815l.7-.758a.1.1,0,0,0,.029-.073v-3.313a.107.107,0,0,0-.045-.087.106.106,0,0,0-.1-.015,1.371,1.371,0,0,0-.523.354v-.946a.106.106,0,0,0-.02-.062.393.393,0,0,0-.279-.16.367.367,0,0,0-.3.153.1.1,0,0,0-.026.069v.222h-.618v-1.4a.111.111,0,0,0-.107-.112.1.1,0,0,0-.106.1v.008a.323.323,0,0,1-.016.033l-.015.03a1.526,1.526,0,0,1-.111.209c-.129.2-.263.3-.421.288a.067.067,0,0,1-.037-.008s-.017-.034.025-.15a.788.788,0,0,1,.075-.143c.018-.029.036-.057.052-.087a1.434,1.434,0,0,0,.151-.734.632.632,0,0,0-.129-.457.1.1,0,0,0-.109-.026.108.108,0,0,0-.073.084.431.431,0,0,1-.174.281.089.089,0,0,1-.056.021c-.012-.012-.036-.081.169-.452l.006-.011a.97.97,0,0,0,0-.773.1.1,0,0,0-.1-.057.108.108,0,0,0-.093.075.99.99,0,0,1-.155.318c.008-.09.038-.231.059-.334a2.9,2.9,0,0,0,.078-.521,1.141,1.141,0,0,0-.1-.522.1.1,0,0,0-.109-.054.107.107,0,0,0-.09.081,2.564,2.564,0,0,1-.113.366,1.953,1.953,0,0,1-.039-.4c0-.323-.175-1.036-.687-1.166-.05-.257-.106-.517-.42-.517s-.37.26-.42.517c-.512.13-.687.843-.687,1.166a1.953,1.953,0,0,1-.039.4,2.564,2.564,0,0,1-.113-.366.108.108,0,0,0-.2-.027,1.141,1.141,0,0,0-.1.522,2.9,2.9,0,0,0,.078.521c.021.1.051.244.059.334a.99.99,0,0,1-.155-.318.109.109,0,0,0-.093-.075.105.105,0,0,0-.1.057.97.97,0,0,0,0,.773l.006.011c.205.371.181.44.169.452a.093.093,0,0,1-.057-.021.434.434,0,0,1-.173-.281.108.108,0,0,0-.073-.084.1.1,0,0,0-.109.026.636.636,0,0,0-.129.465,1.421,1.421,0,0,0,.151.726c.016.03.034.058.051.087a.794.794,0,0,1,.076.143c.042.116.025.149.025.149a.056.056,0,0,1-.037.009c-.158.009-.292-.087-.421-.288a1.519,1.519,0,0,1-.111-.209l-.015-.03c-.005-.01-.015-.029-.016-.025a.108.108,0,0,0-.215,0v2.515h-.8a.813.813,0,0,0-.314-.152.1.1,0,0,0-.09.021.108.108,0,0,0-.04.084v.1H509.03v-2.393a.106.106,0,0,0-.063-.1.107.107,0,0,0-.115.018l-.545.483a.113.113,0,0,0-.036.081v.414h-.278a.735.735,0,0,1-.246-.545c.027-.171.182-.319.46-.44a.108.108,0,0,0,.064-.1v-.859a.108.108,0,0,0-.1-.108c-.036,0-.331.009-.747.493a.343.343,0,0,0-.23-.115.293.293,0,0,0-.251.16.1.1,0,0,0-.018.058v.92h-.114v-1.062c.023-.027.079-.075.1-.1s.046-.04.056-.051c.03-.032.061-.061.093-.091a.782.782,0,0,0,.273-.406,1.7,1.7,0,0,0-.062-.845.106.106,0,0,0-.1-.071.109.109,0,0,0-.1.06c-.019.039-.037.079-.055.118a1.423,1.423,0,0,1-.153.284.214.214,0,0,1-.134.1v-.021c0-.091,0-.183,0-.274a.668.668,0,0,1,.21-.412l.023-.028a2.741,2.741,0,0,0,.338-.5,1.281,1.281,0,0,0-.1-1.094.105.105,0,0,0-.113-.044.106.106,0,0,0-.082.09,1.775,1.775,0,0,1-.165.581c-.045.088-.06.109-.1.115a.676.676,0,0,1-.129,0v-.541a1.7,1.7,0,0,0,.329-.744,1.347,1.347,0,0,0-.2-.747.107.107,0,0,0-.179.046c-.031.11-.056.209-.077.3-.041.164-.083.334-.13.36h-.155v-.443a1.643,1.643,0,0,0,.343-.755.627.627,0,0,0-.125-.445.107.107,0,0,0-.179.044,1.441,1.441,0,0,1-.2.441h-.2v-.211a.944.944,0,0,0,.357-.6.419.419,0,0,0-.169-.335.107.107,0,0,0-.143.008l-.217.217h-.053l.182-.761a.107.107,0,0,0-.021-.091.106.106,0,0,0-.084-.041h-.131l.089-.442a.108.108,0,0,0-.023-.09.1.1,0,0,0-.083-.039h-.14l.047-.3a.107.107,0,0,0-.106-.124h-.327l.065-.347a.109.109,0,0,0-.022-.089.11.11,0,0,0-.083-.038h-.314a.778.778,0,0,0-.084-.522.511.511,0,0,0-.385-.224.114.114,0,0,0-.037,0,.092.092,0,0,0-.033,0,.509.509,0,0,0-.385.224.779.779,0,0,0-.085.522h-.314a.107.107,0,0,0-.1.127l.065.347h-.327a.11.11,0,0,0-.082.038.107.107,0,0,0-.024.086l.047.3h-.14a.106.106,0,0,0-.083.039.1.1,0,0,0-.022.09l.088.442h-.131a.106.106,0,0,0-.084.041.1.1,0,0,0-.02.091l.181.761h-.052l-.217-.217a.109.109,0,0,0-.144-.008.419.419,0,0,0-.169.335.944.944,0,0,0,.357.6v.211h-.2a1.421,1.421,0,0,1-.2-.441.111.111,0,0,0-.077-.073.107.107,0,0,0-.1.029.619.619,0,0,0-.126.445,1.643,1.643,0,0,0,.343.755v.443h-.155c-.047-.026-.089-.2-.129-.36-.022-.088-.046-.187-.078-.3a.107.107,0,0,0-.179-.046,1.356,1.356,0,0,0-.2.747,1.706,1.706,0,0,0,.329.744v.541a.676.676,0,0,1-.129,0c-.039-.006-.054-.027-.1-.123a1.758,1.758,0,0,1-.159-.573.108.108,0,0,0-.082-.09.106.106,0,0,0-.114.044,1.284,1.284,0,0,0-.1,1.094,2.8,2.8,0,0,0,.338.5l.023.028a.675.675,0,0,1,.211.412c0,.091,0,.183,0,.274v.021a.216.216,0,0,1-.134-.1,1.423,1.423,0,0,1-.153-.284c-.018-.039-.036-.079-.055-.118a.11.11,0,0,0-.1-.06.107.107,0,0,0-.1.071,1.7,1.7,0,0,0-.062.845.778.778,0,0,0,.274.406c.031.03.062.059.092.091l.056.051a1.373,1.373,0,0,1,.1.1v1.062h-.114v-.92a.106.106,0,0,0-.017-.058.3.3,0,0,0-.252-.16.343.343,0,0,0-.23.115c-.416-.484-.711-.491-.747-.493a.108.108,0,0,0-.1.108v.859a.108.108,0,0,0,.064.1c.278.121.433.269.46.439a.73.73,0,0,1-.245.546h-.279v-.414a.109.109,0,0,0-.036-.081l-.544-.483a.109.109,0,0,0-.116-.018.108.108,0,0,0-.063.1v2.393h-4.142v-.1a.1.1,0,0,0-.04-.084.1.1,0,0,0-.09-.021.819.819,0,0,0-.314.152h-.8V323.7a.111.111,0,0,0-.107-.112.1.1,0,0,0-.107.1v.008a.33.33,0,0,1-.016.033l-.014.03a1.525,1.525,0,0,1-.112.209.5.5,0,0,1-.421.288.075.075,0,0,1-.037-.008s-.017-.034.025-.15a.792.792,0,0,1,.076-.143c.017-.029.035-.057.051-.087a1.434,1.434,0,0,0,.151-.734.627.627,0,0,0-.129-.457.1.1,0,0,0-.108-.026.108.108,0,0,0-.074.084.43.43,0,0,1-.173.281.092.092,0,0,1-.056.021c-.013-.012-.037-.081.168-.452l.006-.011a.966.966,0,0,0,0-.773.1.1,0,0,0-.1-.057.109.109,0,0,0-.093.075.991.991,0,0,1-.155.318c.009-.09.038-.231.059-.334a2.816,2.816,0,0,0,.078-.521,1.141,1.141,0,0,0-.1-.522.107.107,0,0,0-.2.027,2.846,2.846,0,0,1-.113.366,1.876,1.876,0,0,1-.04-.4c0-.323-.175-1.036-.687-1.166-.05-.257-.106-.517-.42-.517s-.37.26-.42.517c-.512.13-.687.843-.687,1.166a1.887,1.887,0,0,1-.039.4,2.56,2.56,0,0,1-.113-.366.107.107,0,0,0-.09-.081.108.108,0,0,0-.109.054,1.142,1.142,0,0,0-.1.522,2.9,2.9,0,0,0,.078.521c.022.1.051.244.06.334a.988.988,0,0,1-.156-.318.108.108,0,0,0-.2-.018.974.974,0,0,0,0,.773l.006.011c.206.371.181.44.17.452a.089.089,0,0,1-.057-.021.43.43,0,0,1-.174-.281.108.108,0,0,0-.182-.058.646.646,0,0,0-.129.465,1.442,1.442,0,0,0,.151.726c.017.03.034.058.052.087a.792.792,0,0,1,.076.143c.041.116.025.149.025.149a.062.062,0,0,1-.037.009c-.159.009-.293-.087-.422-.288a1.641,1.641,0,0,1-.111-.209l-.015-.03c-.005-.01-.014-.029-.015-.025a.107.107,0,0,0-.215,0v1.4h-.618v-.222a.1.1,0,0,0-.026-.069.37.37,0,0,0-.3-.153.4.4,0,0,0-.28.16.106.106,0,0,0-.02.062v.946a1.371,1.371,0,0,0-.523-.354.108.108,0,0,0-.141.1v3.313a.106.106,0,0,0,.029.073l.7.758v3.822c-.157.237-.406.542-.638.582h-.834a.107.107,0,0,0-.107.107v.981h-.6a.107.107,0,0,0-.107.107v1.29h-.974a.107.107,0,0,0-.108.107v1.753h-.97a.107.107,0,0,0-.107.107v2.015h-.981a.107.107,0,0,0-.107.108v2.122a.107.107,0,0,0,.107.108h44.323a.108.108,0,0,0,.108-.108v-2.122A.108.108,0,0,0,526.328,340.583Zm-1.2,0h-6.624v-1.907h6.624Zm-36.03-6.467a1.3,1.3,0,0,0,.327-.632h.478a1.535,1.535,0,0,1-.441.632Zm-1.478,0a1.343,1.343,0,0,0,.327-.632h1.256a.841.841,0,0,1-.522.632Zm.314-5.15-.2-.205h.94l.559.559v3.949h-.112V330.52a.107.107,0,0,0-.107-.107h-.636a.107.107,0,0,0-.107.107v2.749h-.3v-4.228A.107.107,0,0,0,487.939,328.966Zm.054-3.129h.618v2.337a2.172,2.172,0,0,0-.618-.674Zm.568,2.709h-.979v-1.035A1.966,1.966,0,0,1,488.561,328.546Zm1.129-2.925v-.882a1.017,1.017,0,0,1,.533.529.1.1,0,0,0,.107.062.107.107,0,0,0,.1-.079,1.014,1.014,0,1,1,1.679,0,.107.107,0,0,0,.2.017,1.02,1.02,0,0,1,.534-.53v.883l-.34.514a1.283,1.283,0,0,0-.276.271,2.005,2.005,0,0,0-.9-1.4h0l0,0-.015-.005a.091.091,0,0,0-.021-.008.075.075,0,0,0-.021,0,.068.068,0,0,0-.02,0,.084.084,0,0,0-.022.008l-.015.005,0,0h0a2.007,2.007,0,0,0-.9,1.4,1.286,1.286,0,0,0-.277-.271Zm1.574-4.953a.93.93,0,0,1,.274.406.109.109,0,0,0,.078.068.107.107,0,0,0,.1-.029.392.392,0,0,1,.1-.06v.143l-.255.236a1.808,1.808,0,0,0-.223-.239l-.013-.007a.108.108,0,0,0-.018-.011l-.019,0-.021,0-.02,0-.019,0-.019.011-.012.007a1.885,1.885,0,0,0-.223.239l-.256-.236v-.143a.383.383,0,0,1,.1.06.107.107,0,0,0,.1.029.109.109,0,0,0,.078-.068A.927.927,0,0,1,491.264,320.668Zm-.34,1.208A.11.11,0,0,0,491,321.8a1.115,1.115,0,0,1,.264-.383,1.165,1.165,0,0,1,.263.383.109.109,0,0,0,.075.068.115.115,0,0,0,.1-.024,1.134,1.134,0,0,1,.141-.084v.213l-.162.2a.845.845,0,0,0-.388-.258l-.008,0-.006,0a.08.08,0,0,0-.016,0,.1.1,0,0,0-.017,0l-.007,0-.007,0a.845.845,0,0,0-.388.258l-.162-.2v-.213a1.487,1.487,0,0,1,.139.082A.11.11,0,0,0,490.924,321.876Zm-.169.79a.51.51,0,1,1,1.019,0,.108.108,0,0,0,.09.063.109.109,0,0,0,.1-.051.444.444,0,0,1,.194-.168v.361l-.281.281a1.05,1.05,0,0,0-.565-.5h0l-.007,0-.014,0a.068.068,0,0,0-.046,0l-.013,0-.007,0h0a1.051,1.051,0,0,0-.564.5l-.281-.281v-.361a.462.462,0,0,1,.194.168.111.111,0,0,0,.1.051A.108.108,0,0,0,490.755,322.666Zm-.085.977.006-.016c.026-.066.052-.133.081-.2a.51.51,0,1,1,1.015,0c.029.068.055.135.081.2l.006.015a.106.106,0,0,0,.092.069.108.108,0,0,0,.1-.054.612.612,0,0,1,.377-.267v.509l-.409.462a2,2,0,0,0-.7-.917l-.014-.005a.067.067,0,0,0-.02-.007h-.041l-.02.007-.014.005a2.007,2.007,0,0,0-.7.917l-.408-.462v-.509a.607.607,0,0,1,.377.267.107.107,0,0,0,.193-.015Zm-.98,2.536a1.043,1.043,0,0,1,.555.579.108.108,0,0,0,.209-.011.977.977,0,1,1,1.621,0,.108.108,0,0,0,.209.011,1.044,1.044,0,0,1,.555-.578v.763l-.55.648a2.292,2.292,0,0,0-.982-1.116h0l0,0-.017,0a.2.2,0,0,0-.022,0,.127.127,0,0,0-.027.005l-.013,0h0a2.294,2.294,0,0,0-.981,1.116l-.55-.648Zm1.574.512c.528.245.91,1.138,1.013,1.4a1.589,1.589,0,0,0-.247.22,1.894,1.894,0,0,0-.713-1.178l-.012,0-.02-.007h-.041l-.02.007-.013,0a1.9,1.9,0,0,0-.712,1.178,1.549,1.549,0,0,0-.248-.22C490.355,327.829,490.736,326.936,491.264,326.691Zm-.8,1.94a.108.108,0,0,0,.2-.035.764.764,0,1,1,1.2,0,.107.107,0,0,0,.088.091.105.105,0,0,0,.113-.056,1.527,1.527,0,0,1,.687-.565v.868h-2.979v-.869A1.521,1.521,0,0,1,490.461,328.631Zm4.486-1.121v1.036h-.979A1.944,1.944,0,0,1,494.947,327.51Zm5.115-.124h.9a6.25,6.25,0,0,1,1.463.527v.153h-2.364Zm1.021-1.481a2.616,2.616,0,0,1,1.1,1.125v.141h-1.1Zm1.115-2.086a1.14,1.14,0,0,1,.594.507.11.11,0,0,0,.109.05.107.107,0,0,0,.086-.083,1.252,1.252,0,1,1,2.316,0,.107.107,0,0,0,.2.033,1.135,1.135,0,0,1,.594-.507v.833h-1.25a1.442,1.442,0,0,0-.635-.6.113.113,0,0,0-.063,0,.11.11,0,0,0-.062,0,1.437,1.437,0,0,0-.635.6H502.2Zm.342-1.906a1.161,1.161,0,0,1,.473.376.113.113,0,0,0,.094.05.11.11,0,0,0,.091-.055c.053-.094.1-.178.142-.256a.828.828,0,1,1,1.611,0c.043.078.089.162.142.256a.108.108,0,0,0,.091.055.113.113,0,0,0,.093-.05,1.172,1.172,0,0,1,.474-.376v.691h-1.193a1.076,1.076,0,0,0-.354-.249.108.108,0,0,0-.059,0,.1.1,0,0,0-.058,0,1.066,1.066,0,0,0-.354.249H502.54Zm.363-.941h-.175V320.3a1.037,1.037,0,0,1,.387.35.107.107,0,0,0,.2-.005.9.9,0,1,1,1.671,0,.106.106,0,0,0,.1.065.119.119,0,0,0,.1-.06,1.038,1.038,0,0,1,.388-.349v.674h-1.14q-.084-.079-.186-.168a.1.1,0,0,0-.092-.023.1.1,0,0,0-.092.023c-.068.059-.129.115-.185.168Zm.242-2.1a.722.722,0,0,1,.377.286.108.108,0,0,0,.108.053.105.105,0,0,0,.089-.081.539.539,0,1,1,.852,0,.108.108,0,0,0,.2.028.722.722,0,0,1,.377-.286v.631l-.344.335a1.941,1.941,0,0,0-.579-.63.241.241,0,0,0-.156,0,1.963,1.963,0,0,0-.579.63l-.343-.335Zm.9-1.944a.348.348,0,0,1,.1-.117.342.342,0,0,1,.105.117.939.939,0,0,0,.161.2.107.107,0,0,0,.152,0,.468.468,0,0,1,.126-.083v.372l-.158.083a.968.968,0,0,0-.322-.366l0,0-.006,0-.014,0-.021-.008h-.041l-.022.008-.014,0,0,0,0,0a.968.968,0,0,0-.322.366l-.159-.083v-.372a.473.473,0,0,1,.127.083.107.107,0,0,0,.152,0A.973.973,0,0,0,504.041,316.928Zm-.278,1.039c.029-.053.056-.109.084-.164a1.3,1.3,0,0,1,.3-.447,1.284,1.284,0,0,1,.3.447c.028.055.055.111.084.164a.107.107,0,0,0,.17.025,1.018,1.018,0,0,1,.334-.178v.324l-.473.365a1.986,1.986,0,0,0-.316-.455.109.109,0,0,0-.1-.027.107.107,0,0,0-.1.027,1.987,1.987,0,0,0-.316.455l-.473-.365v-.324a1.014,1.014,0,0,1,.333.178.112.112,0,0,0,.092.03A.106.106,0,0,0,503.763,317.967Zm.874,3.22h.472a2.4,2.4,0,0,0-.216.319A2.681,2.681,0,0,0,504.637,321.187Zm-.983,0a2.684,2.684,0,0,0-.256.319,2.4,2.4,0,0,0-.216-.319Zm1.1,1.632h.737a1.229,1.229,0,0,0-.335.609A4.515,4.515,0,0,0,504.75,322.819Zm-1.209,0a4.622,4.622,0,0,0-.4.609,1.213,1.213,0,0,0-.335-.609Zm2.019,3.57c-.032.035-.063.072-.093.112a6.214,6.214,0,0,0-.5-1.634h.97A2.947,2.947,0,0,0,505.56,326.389Zm-2.233-1.522a6.291,6.291,0,0,0-.5,1.634c-.029-.04-.061-.077-.092-.112a2.946,2.946,0,0,0-.373-1.522Zm-.782,1.637h0a1.047,1.047,0,0,1,.234.36.107.107,0,0,0,.208-.023c.107-.883.5-2.29,1.157-2.584.655.294,1.051,1.7,1.158,2.584a.106.106,0,0,0,.1.094.107.107,0,0,0,.113-.071,1.266,1.266,0,0,1,.381-.5v.8h-1.011a1.8,1.8,0,0,0-.662-.667.1.1,0,0,0-.073-.01.106.106,0,0,0-.074.01,1.811,1.811,0,0,0-.663.667H502.4v-.8A1.517,1.517,0,0,1,502.545,326.5Zm5.726.882v.68h-2.406v-.128a6.053,6.053,0,0,1,1.505-.552Zm6.1,1.16h-.979v-1.035A1.969,1.969,0,0,1,514.366,328.546Zm.112.215.56.559v3.949h-.112V330.52a.107.107,0,0,0-.108-.107h-.635a.107.107,0,0,0-.108.107v2.749h-.3v-4.228a.106.106,0,0,0-.031-.075l-.205-.205Zm1.017-3.14v-.882a1.017,1.017,0,0,1,.533.529.1.1,0,0,0,.107.062.106.106,0,0,0,.095-.079,1.014,1.014,0,1,1,1.678,0,.106.106,0,0,0,.095.079.1.1,0,0,0,.107-.062,1.019,1.019,0,0,1,.533-.53v.883l-.339.514a1.259,1.259,0,0,0-.276.271,2.012,2.012,0,0,0-.9-1.4h0l-.005,0-.015-.005a.084.084,0,0,0-.022-.008.075.075,0,0,0-.021,0,.061.061,0,0,0-.019,0,.106.106,0,0,0-.023.008l-.014.005-.005,0h0a2.012,2.012,0,0,0-.9,1.4,1.282,1.282,0,0,0-.276-.271Zm1.574-4.953a.939.939,0,0,1,.274.406.107.107,0,0,0,.176.039.423.423,0,0,1,.1-.06v.143l-.255.236a1.853,1.853,0,0,0-.224-.239l-.012-.007-.018-.011-.019,0-.021,0-.02,0-.02.006-.018.01-.012.007a1.708,1.708,0,0,0-.224.239l-.255-.236v-.143a.391.391,0,0,1,.1.06.107.107,0,0,0,.177-.039A.939.939,0,0,1,517.069,320.668Zm-.341,1.208a.108.108,0,0,0,.077-.071,1.139,1.139,0,0,1,.264-.382,1.122,1.122,0,0,1,.263.382.111.111,0,0,0,.076.068.116.116,0,0,0,.1-.024,1.1,1.1,0,0,1,.14-.084v.213l-.162.2a.846.846,0,0,0-.386-.257l-.01,0-.006,0a.075.075,0,0,0-.015,0,.1.1,0,0,0-.017,0l-.007,0-.007,0a.84.84,0,0,0-.388.258l-.162-.2v-.213a1.309,1.309,0,0,1,.138.082A.111.111,0,0,0,516.728,321.876Zm-.168.79a.51.51,0,1,1,1.018,0,.108.108,0,0,0,.091.063.109.109,0,0,0,.1-.051.447.447,0,0,1,.193-.168v.361l-.28.281a1.057,1.057,0,0,0-.565-.5h0l-.008,0-.014,0a.079.079,0,0,0-.022,0,.1.1,0,0,0-.024,0l-.013,0-.007,0h0a1.054,1.054,0,0,0-.565.5l-.28-.281v-.361a.454.454,0,0,1,.193.168.108.108,0,0,0,.19-.012Zm-.085.977.006-.015c.025-.067.052-.134.081-.2a.51.51,0,1,1,1.014,0c.029.068.055.135.081.2l.006.016a.108.108,0,0,0,.194.015.61.61,0,0,1,.377-.267v.509l-.409.462a2,2,0,0,0-.7-.917l-.013-.005a.073.073,0,0,0-.021-.007h-.04a.073.073,0,0,0-.021.007l-.014.005a2.005,2.005,0,0,0-.7.917l-.409-.462v-.509a.607.607,0,0,1,.377.267.108.108,0,0,0,.194-.015Zm-.98,2.536a1.046,1.046,0,0,1,.555.579.108.108,0,0,0,.108.077.106.106,0,0,0,.1-.088.977.977,0,1,1,1.622,0,.107.107,0,0,0,.208.011,1.05,1.05,0,0,1,.555-.578v.763l-.549.648a2.3,2.3,0,0,0-.982-1.116h0l0,0-.018,0a.142.142,0,0,0-.022,0,.118.118,0,0,0-.026.005l-.014,0h0a2.3,2.3,0,0,0-.982,1.116l-.549-.648Zm1.574.512c.528.245.909,1.138,1.013,1.4a1.543,1.543,0,0,0-.247.22,1.9,1.9,0,0,0-.713-1.178l-.012,0-.021-.007h-.04l-.021.007-.012,0a1.9,1.9,0,0,0-.713,1.178,1.543,1.543,0,0,0-.247-.22C516.16,327.829,516.541,326.936,517.069,326.691Zm-.8,1.94a.107.107,0,0,0,.2-.035.764.764,0,1,1,1.2,0,.108.108,0,0,0,.2.035,1.525,1.525,0,0,1,.686-.565v.868H515.58v-.869A1.526,1.526,0,0,1,516.266,328.631Zm4.485-.085h-.979a1.944,1.944,0,0,1,.979-1.036Zm-.411-1.046a2.184,2.184,0,0,0-.618.674v-2.337h.618Zm-.681,1.261h.94l-.205.205a.106.106,0,0,0-.031.075v4.228h-.3V330.52a.107.107,0,0,0-.108-.107h-.636a.107.107,0,0,0-.107.107v2.749H519.1V329.32Zm-.012,5.355a.843.843,0,0,1-.522-.632h1.257a1.33,1.33,0,0,0,.326.632Zm-.78,0a1.523,1.523,0,0,1-.442-.632h.478a1.3,1.3,0,0,0,.327.632Zm-1.168,7.529H516.38V340.8H517.7Zm-1.319-1.062v-.859H517.7v.859Zm-11.554,1.062h-1.319V340.8h1.319Zm-1.319-1.062v-.859h1.319v.859Zm-11.554,1.062h-1.319V340.8h1.319Zm-1.319-1.062v-.859h1.319v.859Zm-.486-11.076-.267-.358h.526v4.12h-.238v-3.7A.1.1,0,0,0,490.148,329.507Zm.474-.358h1.284v4.12h-1.284Zm1.5,0h.526l-.266.358a.1.1,0,0,0-.021.064v3.7h-.239Zm1.922,4.12h-.421v-2.641h.421Zm.534.215a1.343,1.343,0,0,0,.327.632h-1.061a.844.844,0,0,1-.523-.632Zm.584-4.938V328H499.3v.542Zm4.142-.757h-4.142v-.219H499.3Zm-4.2.972h4.273l.269.223h-4.766Zm7.83.644-.185-.256h.506v4.12h-.3v-3.8A.1.1,0,0,0,502.929,329.4Zm.365-2.019a3.532,3.532,0,0,0-.238.7,1.392,1.392,0,0,0-.381-.291v-.409Zm-.653.636a1.329,1.329,0,0,1,.387.367.108.108,0,0,0,.111.042.107.107,0,0,0,.082-.084,1.079,1.079,0,1,1,1.849,0,.107.107,0,0,0,.192.042,1.342,1.342,0,0,1,.388-.367v.912h-3.009Zm4.113,2.608h.275v2.639h-.275Zm6.418-2.084H509.03V328h4.142Zm0-.757H509.03v-.219h4.142Zm-4.21.972h4.273l.224.223h-4.767Zm5.749,4.508h-.421v-2.641h.421Zm.3.215a.843.843,0,0,1-.522.632H513.43a1.339,1.339,0,0,0,.326-.632Zm.729,0a1.535,1.535,0,0,1-.441.632h-.393a1.3,1.3,0,0,0,.327-.632Zm.21-3.977-.266-.358h.526v4.12h-.238v-3.7A.106.106,0,0,0,515.952,329.507Zm1.974-.358h.526l-.267.358a.111.111,0,0,0-.021.064v3.7h-.238Zm-.215,4.12h-1.284v-4.12h1.284Zm-.012,4.084H516.38v-.537H517.7Zm-12.873,2.156h-1.319v-.833h1.319Zm-1.319-1.048v-.893h1.319v.893Zm-11.339-1.645h.381v1.645h-.381Zm0-1.4h.381V336.6h-.381Zm.193-1.935a1.954,1.954,0,0,0,.362.632h-.6v-.632Zm10.336.847v.873h-9.934v-.873Zm-7.9-.847h5.112a.773.773,0,0,1-.543.632h-4.014C495,334.063,494.854,333.684,494.8,333.484Zm.376-3.071h-.4v-.332h5.155v.332h-.4a.107.107,0,0,0-.107.107v2.749h-.491V330.52a.107.107,0,0,0-.107-.107h-.51a.107.107,0,0,0-.107.107v2.749h-.49V330.52a.108.108,0,0,0-.108-.107h-.51a.107.107,0,0,0-.107.107v2.749h-.49V330.52a.107.107,0,0,0-.108-.107h-.509a.107.107,0,0,0-.108.107v2.749h-.49V330.52A.107.107,0,0,0,495.175,330.413ZM499.9,329.2l.029.024v.643h-5.155V329.2Zm.029,4.07h-.3v-2.641h.3Zm-1.215,0h-.3v-2.641h.3Zm-1.215,0H497.2v-2.641h.295Zm-1.215,0h-.295v-2.641h.295Zm7.009,1.062v.873h-.38v-.873Zm.173-5.182h1.318v4.12h-1.318Zm1.533,0h.506l-.185.256a.1.1,0,0,0-.021.063v3.8H505Zm10.572,5.182v.873h-9.934v-.873Zm-7.149-.847h5.113c-.054.2-.2.579-.555.632h-4.014A.768.768,0,0,1,508.421,333.484Zm4.845-.215v-2.641h.294v2.641Zm.294-3.4h-5.154v-.643l.028-.024h5.126Zm-5.154.215h5.154v.332h-.4a.108.108,0,0,0-.108.107v2.749h-.49V330.52a.107.107,0,0,0-.107-.107h-.51a.108.108,0,0,0-.108.107v2.749h-.49V330.52a.107.107,0,0,0-.107-.107h-.51a.107.107,0,0,0-.107.107v2.749h-.491V330.52a.107.107,0,0,0-.107-.107h-.51a.107.107,0,0,0-.107.107v2.749h-.491V330.52a.107.107,0,0,0-.107-.107h-.4Zm3.94,3.188h-.295v-2.641h.295Zm-1.215,0h-.3v-2.641h.3Zm-1.215,0h-.294v-2.641h.294Zm-1.215,0h-.294v-2.641h.294Zm7.271.215h.24v.632h-.6A1.935,1.935,0,0,0,515.972,333.484Zm.193,3.117h-.38v-1.182h.38Zm-11.339.752h-1.319v-.537h1.319Zm-1.319-.752v-.125h1.319v.125Zm-.6-1.182h.38V336.6h-.38ZM502.7,336.6h-9.934v-1.182H502.7Zm.81-2.27h1.319v.873h-1.319Zm1.534,0h.38v.873h-.38Zm-.215,1.088v.843h-1.319v-.843Zm.215,0h.38V336.6h-.38Zm.6,0h9.934V336.6h-9.934Zm10.149-.215v-.873h.38v.873ZM505,334.116v-.632h.4a1.267,1.267,0,0,0,.356.632Zm-.215-.632v.632h-1.318v-.632Zm-12.615.847h.381v.873h-.381Zm.6,2.485H502.7v1.645h-9.934Zm10.149,0h.38v1.645h-.38Zm2.129,0h.38v1.645h-.38Zm.6,0h9.934v1.645h-9.934Zm10.149,0h.38v1.645h-.38Zm.6-.215v-.125H517.7v.125Zm1.319-.339H516.38v-.843H517.7ZM516.38,335.2v-.873H517.7v.873Zm1.331-1.088h-1.284v-.632h1.284Zm-9.509-.632a1.12,1.12,0,0,0,.324.632h-1.158a.972.972,0,0,1-.594-.632Zm-1.648,0a1.114,1.114,0,0,0,.4.632h-.821a1,1,0,0,1-.507-.632Zm-.938-5.689a1.408,1.408,0,0,0-.382.291,3.406,3.406,0,0,0-.238-.7h.62Zm-2.366,5.689v.632h-.674a1.259,1.259,0,0,0,.356-.632Zm-1.046.632h-.821a1.113,1.113,0,0,0,.4-.632h.931A1,1,0,0,1,502.2,334.116Zm-.624-.847H501.3V330.63h.276Zm-.022.215a.973.973,0,0,1-.593.632h-1.158a1.124,1.124,0,0,0,.324-.632Zm-6.785-2.856h.295v2.641h-.295Zm-1.674,2.856a1.294,1.294,0,0,0,.326.632h-.393a1.534,1.534,0,0,1-.441-.632Zm-1.193,0v.632h-1.284v-.632Zm-1.272.847h1.319v.873h-1.319Zm1.319,1.088v.843h-1.319v-.843Zm-1.319,1.057h1.319v.125h-1.319Zm1.319.34v.537h-1.319v-.537Zm-1.319.752h1.319v.893h-1.319Zm1.319,1.108v.833h-1.319v-.833Zm.215,0h.381v1.907h-.381Zm.6,0H502.7v1.907h-9.934Zm10.149,0h.38v1.907h-.38Zm2.129,0h.38v1.907h-.38Zm.6,0h9.934v1.907h-9.934Zm10.149,0h.38v1.907h-.38Zm1.914.833H516.38v-.833H517.7Zm-1.319-1.048v-.893H517.7v.893Zm1.534-1.645h.38v1.645h-.38Zm0-.215v-1.182h.38V336.6Zm0-1.4v-.873h.38v.873Zm.012-1.088v-.632h.269a1.935,1.935,0,0,0,.363.632Zm1.922-.847h-.421v-2.641h.421Zm-.931-4.07a.105.105,0,0,0-.032.076v3.994h-.506v-3.663l.373-.5.009-.018,0-.006a.1.1,0,0,0,.007-.037v-.284h.582Zm-3.552-.154a.124.124,0,0,0,.008.037l0,.006.01.018.373.5v3.663h-.506v-3.994a.109.109,0,0,0-.032-.076l-.439-.438h.583v.284Zm-2.193-1.69H509.03v-.488h4.142Zm-4.942,1.735a.1.1,0,0,0-.039.082v4.1h-.947v-2.747a.107.107,0,0,0-.108-.107h-.382v-1.654h1.872Zm-1.659-.514h0a.121.121,0,0,0-.02.03l0,.005,0,.009a.113.113,0,0,0-.006.032h0v1.869h0v2.746H505.6V329.5l.289-.4a.106.106,0,0,0,.009-.111.12.12,0,0,0-.031-.036v-.676h1.012Zm.68-1.4h-1.144v-.086a.112.112,0,0,0,.029-.032,2.619,2.619,0,0,1,1.115-1.148Zm-1.252.215a.129.129,0,0,0,.021,0,.143.143,0,0,0,.022,0h.544a4.489,4.489,0,0,0-.755.322v-.322Zm-3.539,0v.3a4.7,4.7,0,0,0-.712-.3h.712Zm-.034.9v.764a.092.092,0,0,0,.007.036l0,.007.008.016.289.4v3.766h-.94v-4.616h0a.114.114,0,0,0-.006-.032l0-.009,0-.005a.1.1,0,0,0-.02-.03h0l-.306-.295Zm-.846,2.134H501.2a.108.108,0,0,0-.108.107v2.747h-.947v-4.1a.107.107,0,0,0-.038-.082l-.4-.329h1.872Zm-2.277-3.06h-4.142v-.488H499.3Zm-5.448,1.406h.94l-.205.205a.1.1,0,0,0-.032.075v4.228h-.3V330.52a.107.107,0,0,0-.107-.107h-.636a.107.107,0,0,0-.108.107v2.749H493.3V329.32Zm-.743.438a.108.108,0,0,0-.031.076v3.994h-.506v-3.663l.372-.5.01-.018,0-.006a.121.121,0,0,0,.007-.037v-.284h.582Zm-3.551-.154a.1.1,0,0,0,.007.037l0,.006.009.018.373.5v3.663h-.506v-3.994a.108.108,0,0,0-.031-.076l-.439-.438h.582v.284Zm-1.076,4.224v-2.641h.421v2.641Zm1.653.215h.269v.632h-.631A1.954,1.954,0,0,0,490.138,333.484Zm.281.847v.873h-.38v-.873Zm0,1.088V336.6h-.38v-1.182Zm0,1.4v1.645h-.38v-1.645Zm0,1.86v1.907h-.38v-1.907Zm0,2.122v1.908h-.38V340.8Zm.215,1.062h1.319v.846h-1.319Zm1.534-1.062h.381v1.908h-.381Zm.6,0H502.7v1.908h-9.934Zm10.149,0h.38v1.908h-.38Zm.6,1.062h1.319v.846h-1.319Zm1.534-1.062h.38v1.908h-.38Zm.6,0h9.934v1.908h-9.934Zm10.149,0h.38v1.908h-.38Zm.6,1.062H517.7v.846H516.38Zm1.534-1.062h.38v1.908h-.38Zm0-.215v-1.907h.38v1.907Zm6.141-2.122h-5.546v-1.645h5.546Zm-1.081-1.86h-4.465v-1.182h4.465Zm-.712-1.4h-3.753v-.873h3.753Zm-1.17-1.1a.839.839,0,0,1-.488-.617h.015A2.643,2.643,0,0,0,521.092,334.1Zm.323-8.364v3.1l-.7.757a.11.11,0,0,0-.029.073v3.6h-.1v-4.183l.356-.357h0a.1.1,0,0,0,.02-.031l0-.01a.143.143,0,0,0,.006-.028v-2.473A1.164,1.164,0,0,1,521.415,325.737Zm-.86-.82a.157.157,0,0,1,.1-.051.159.159,0,0,1,.094.049v2.363a1.7,1.7,0,0,0-.2.09Zm-.215.393v.312h-.618v-.312Zm-5.71-1.176a.671.671,0,0,0,.57.329.254.254,0,0,0,.206-.1.372.372,0,0,0,0-.346.9.9,0,0,0-.095-.183c-.015-.025-.031-.051-.045-.077a1.217,1.217,0,0,1-.125-.628c0-.028,0-.057,0-.087a.5.5,0,0,0,.238.189.227.227,0,0,0,.238-.05c.167-.166-.014-.492-.133-.708l-.006-.011a.6.6,0,0,1-.053-.27.407.407,0,0,0,.216.193.172.172,0,0,0,.164-.045c.088-.088.058-.253-.012-.589a2.854,2.854,0,0,1-.073-.477v-.048a.564.564,0,0,0,.1.173.145.145,0,0,0,.162.038c.175-.073.189-.551.189-.7,0-.3.174-.916.577-.968a.107.107,0,0,0,.092-.085l.011-.058c.055-.285.084-.357.212-.357s.156.072.211.357l.012.058a.107.107,0,0,0,.091.085c.4.052.578.666.578.968,0,.145.014.623.188.7a.146.146,0,0,0,.163-.038.564.564,0,0,0,.1-.173v.048a2.854,2.854,0,0,1-.073.477c-.07.336-.1.5-.012.589a.172.172,0,0,0,.164.045.407.407,0,0,0,.216-.193.6.6,0,0,1-.053.27l-.006.011c-.119.216-.3.542-.133.708a.227.227,0,0,0,.238.05.5.5,0,0,0,.238-.189c0,.032,0,.064,0,.1a1.214,1.214,0,0,1-.125.62c-.014.026-.03.052-.045.077a.956.956,0,0,0-.1.183.371.371,0,0,0,0,.346.254.254,0,0,0,.207.1.679.679,0,0,0,.568-.329v4.412h-.734V327.9a.109.109,0,0,0-.045-.088.107.107,0,0,0-.1-.013,2.4,2.4,0,0,0-.364.174c-.018-.047-.043-.105-.072-.171l.639-.753a.108.108,0,0,0,.025-.069v-.967a.107.107,0,0,0-.142-.1l-.011,0,.135-.206a.1.1,0,0,0,.018-.059v-1.061a.108.108,0,0,0-.126-.106,1.169,1.169,0,0,0-.687.466c-.036-.116-.079-.242-.128-.37l.505-.57a.11.11,0,0,0,.027-.072v-.678a.105.105,0,0,0-.035-.078.1.1,0,0,0-.08-.029.94.94,0,0,0-.539.237l-.015-.036.365-.364a.109.109,0,0,0,.031-.076v-.554a.107.107,0,0,0-.122-.106.725.725,0,0,0-.36.177c-.02-.031-.042-.062-.066-.094l.211-.253a.108.108,0,0,0,.025-.069v-.43a.107.107,0,0,0-.156-.1c-.061.03-.147.075-.22.117l.31-.287a.109.109,0,0,0,.035-.079v-.35a.108.108,0,0,0-.045-.087.105.105,0,0,0-.1-.014,1.438,1.438,0,0,0-.2.084,1.023,1.023,0,0,0-.36-.427l0,0,0,0c-.005,0-.01,0-.015-.006l-.021-.008a.175.175,0,0,0-.023,0,.107.107,0,0,0-.018,0,.171.171,0,0,0-.024.009l-.013.005,0,0,0,0a1.023,1.023,0,0,0-.36.427,1.438,1.438,0,0,0-.2-.084.107.107,0,0,0-.142.1v.35a.108.108,0,0,0,.034.079l.311.287c-.073-.042-.159-.087-.221-.117a.1.1,0,0,0-.1,0,.106.106,0,0,0-.051.091v.43a.1.1,0,0,0,.025.069l.211.253c-.024.032-.046.063-.066.094a.725.725,0,0,0-.36-.177.107.107,0,0,0-.122.106v.554a.109.109,0,0,0,.031.076l.365.364-.015.036a.94.94,0,0,0-.539-.237.106.106,0,0,0-.081.029.108.108,0,0,0-.034.078v.678a.11.11,0,0,0,.027.072l.505.57c-.05.128-.093.254-.129.37a1.168,1.168,0,0,0-.686-.466.1.1,0,0,0-.088.024.107.107,0,0,0-.038.082v1.061a.11.11,0,0,0,.017.059l.136.206-.012,0a.106.106,0,0,0-.141.1v.967a.108.108,0,0,0,.025.069l.639.753c-.03.066-.054.124-.072.171a2.4,2.4,0,0,0-.364-.174.107.107,0,0,0-.1.013.109.109,0,0,0-.045.088v.643h-.735Zm-.215,4.04a2.16,2.16,0,0,0-.732-.749v-1h.732Zm-.947-1.8v.941l-.081-.033v-.961A.49.49,0,0,1,513.468,326.37Zm-.3.111v.171H509.03v-.171Zm-4.686-2.076.329-.293v4.434h-1.9l.274-.265h1.193a.107.107,0,0,0,.107-.107V324.4Zm-.215.581v2.185h-.215v-2.185Zm-.215-2.02v.652a.815.815,0,0,0-.521.575.928.928,0,0,0,.307.731v2.247h-.377V323.5A1.58,1.58,0,0,1,508.056,322.966Zm-1.027,1.485a.107.107,0,0,0,.107-.108v-.993a.113.113,0,0,1,.051-.037.187.187,0,0,1,.1.069l-.014.018a.11.11,0,0,0-.02.064v2.206a2.535,2.535,0,0,0-1.144,1.019v-.539a.108.108,0,0,0-.166-.091,1.939,1.939,0,0,0-.159.119c.026-.435.137-1.115.476-1.327l.011-.01.01-.009a.078.078,0,0,0,.016-.024l0-.008a.123.123,0,0,0,.008-.038v-.311Zm.008-2.248a1.171,1.171,0,0,0,.1-.157,1.411,1.411,0,0,1-.012.438.589.589,0,0,1-.211.294c-.034.032-.068.065-.1.1l-.041.037c-.121.106-.178.163-.178.236v1.086h-.284v-.551a.1.1,0,0,0-.034-.078.11.11,0,0,0-.081-.029,1.154,1.154,0,0,0-.749.456c-.032-.082-.073-.176-.121-.277a1.041,1.041,0,0,1,.574-.946h0l.011-.007a.085.085,0,0,0,.022-.015l.009-.011a.142.142,0,0,0,.014-.02l.005-.015a.093.093,0,0,0,0-.024v-.33h.659A.438.438,0,0,0,507.037,322.2Zm-.258-1.409c.151-.023.207-.132.262-.237a1.559,1.559,0,0,0,.107-.273,1.02,1.02,0,0,1-.038.552,2.506,2.506,0,0,1-.312.463l-.023.028a.848.848,0,0,0-.259.552c0,.09,0,.179,0,.268v.027h-.551v-.423a.1.1,0,0,0-.045-.087.105.105,0,0,0-.1-.015,1.721,1.721,0,0,0-.621.389c-.022-.039-.043-.077-.062-.113-.04-.074-.078-.143-.116-.209a1.6,1.6,0,0,1,.4-.529h.25a.107.107,0,0,0,.107-.108V320.8h.733c.025,0,.051,0,.077,0A1.032,1.032,0,0,0,506.779,320.794Zm-.4-1.324.024,0c.172-.041.222-.22.289-.491a1.581,1.581,0,0,1,.036.323,1.6,1.6,0,0,1-.308.646.111.111,0,0,0-.021.063v.572h-.625v-.461a.1.1,0,0,0-.049-.09.108.108,0,0,0-.1-.008,1.9,1.9,0,0,0-.525.365c-.061-.13-.123-.248-.185-.358l.414-.4a.11.11,0,0,0,.032-.077v-.078Zm-.315-1.158c.04,0,.142,0,.27-.277v.022a1.557,1.557,0,0,1-.32.653.105.105,0,0,0-.022.066v.479h-.634v-.526a.108.108,0,0,0-.127-.106,1.128,1.128,0,0,0-.512.256c-.021-.061-.045-.119-.069-.177l.523-.4c.027,0,.146.01.563.012h.328Zm-.348-.92a.107.107,0,0,0,.076-.031l.169-.17a.181.181,0,0,1,.025.094c0,.179-.228.4-.316.466a.106.106,0,0,0-.041.084v.26c-.214,0-.328-.005-.385-.008v-.42a.11.11,0,0,0-.042-.085.107.107,0,0,0-.093-.018,1.824,1.824,0,0,0-.453.188l-.022-.044-.007-.014.217-.113a.107.107,0,0,0,.057-.1v-.1l.009,0Zm-1.793-2.979a.307.307,0,0,1,.233-.128l.008,0,.007,0a.307.307,0,0,1,.233.128.612.612,0,0,1,.047.4h-.575A.61.61,0,0,1,503.926,314.413Zm-.448.619h1.377l-.049.26h-1.279Zm-.371.475h2.119l-.033.206H503.14Zm-.194.421h2.507l-.071.356h-1.161a.13.13,0,0,0-.021,0,.142.142,0,0,0-.022,0h-1.161Zm-.143.571h1.375a.078.078,0,0,0,.022-.005.071.071,0,0,0,.021.005h1.375l-.162.678h-.488l-.009,0v-.284a.109.109,0,0,0-.041-.085.11.11,0,0,0-.093-.019,1.015,1.015,0,0,0-.272.119.777.777,0,0,1-.065-.094.613.613,0,0,0-.227-.225h0l-.014-.006a.223.223,0,0,0-.024-.009.132.132,0,0,0-.02,0,.146.146,0,0,0-.021,0,.211.211,0,0,0-.023.009l-.015.006a.612.612,0,0,0-.23.226.676.676,0,0,1-.065.094.987.987,0,0,0-.272-.119.1.1,0,0,0-.092.019.11.11,0,0,0-.042.085v.282h-.454Zm-.11,1.252c-.087-.069-.315-.287-.316-.466a.181.181,0,0,1,.025-.094l.169.17a.108.108,0,0,0,.076.031h.772v.094a.108.108,0,0,0,.058.1l.216.113-.006.014-.022.044a1.823,1.823,0,0,0-.453-.188.107.107,0,0,0-.135.1v.422c-.065,0-.172.005-.343.006v-.26A.106.106,0,0,0,502.66,317.751Zm-.344.959a1.557,1.557,0,0,1-.32-.653v-.022c.128.277.23.277.27.277h.328c.315,0,.46-.007.524-.01l.52.4c-.025.058-.048.116-.069.177a1.133,1.133,0,0,0-.512-.256.11.11,0,0,0-.089.023.109.109,0,0,0-.038.083v.526h-.591v-.479A.106.106,0,0,0,502.316,318.71Zm-.714.589a1.581,1.581,0,0,1,.036-.323c.067.271.117.45.289.491l.024,0h.979v.078a.106.106,0,0,0,.032.077l.413.4c-.062.11-.123.228-.184.358a1.882,1.882,0,0,0-.526-.365.108.108,0,0,0-.152.1v.461h-.582v-.572a.1.1,0,0,0-.021-.063A1.6,1.6,0,0,1,501.6,319.3Zm-.044,2.028-.023-.028a2.547,2.547,0,0,1-.311-.463,1.022,1.022,0,0,1-.038-.552,1.561,1.561,0,0,0,.111.281.346.346,0,0,0,.257.229,1.034,1.034,0,0,0,.192,0c.026,0,.052,0,.077,0h.69v.284a.108.108,0,0,0,.108.108h.25a1.611,1.611,0,0,1,.4.529c-.038.066-.076.135-.116.209-.02.036-.04.074-.062.113a1.738,1.738,0,0,0-.621-.389.109.109,0,0,0-.143.1v.423h-.508v-.027c0-.089,0-.178,0-.268A.853.853,0,0,0,501.558,321.327Zm.006,1.587-.042-.037c-.032-.034-.067-.067-.1-.1a.586.586,0,0,1-.21-.294,1.381,1.381,0,0,1-.012-.438,1.07,1.07,0,0,0,.1.157.439.439,0,0,0,.413.188h.043a.488.488,0,0,1,.077,0h.5v.322l0,.008a.065.065,0,0,0,.005.024l.005.015a.066.066,0,0,0,.014.02l.008.011a.113.113,0,0,0,.023.015l.01.007h0a1.029,1.029,0,0,1,.574.946c-.048.1-.09.2-.121.277a1.153,1.153,0,0,0-.75-.456.109.109,0,0,0-.08.029.1.1,0,0,0-.034.078v.551h-.242V323.15C501.741,323.077,501.684,323.02,501.564,322.914Zm-.418.4a.1.1,0,0,1,.051.037v.993a.107.107,0,0,0,.107.108h.679v.311a.1.1,0,0,0,.008.038l.005.008a.1.1,0,0,0,.015.024l.011.009.011.01c.338.211.45.892.476,1.327a1.867,1.867,0,0,0-.16-.119.107.107,0,0,0-.109,0,.109.109,0,0,0-.056.094v.475a2.507,2.507,0,0,0-1.1-.955v-2.206a.111.111,0,0,0-.021-.064l-.014-.018A.187.187,0,0,1,501.146,323.313Zm-.347.88a.817.817,0,0,0-.522-.575v-.652a1.577,1.577,0,0,1,.591.533v3.672h-.376v-2.247A.935.935,0,0,0,500.8,324.193Zm-.522,2.978h-.215v-2.185h.215Zm-.759-3.059.329.293v3.769a.107.107,0,0,0,.107.107h1.193l.274.265h-1.9Zm-.215,2.369v.171h-4.142v-.171Zm-4.356.8-.082.033v-.941a.5.5,0,0,1,.082-.053Zm-.3-.853v1a2.161,2.161,0,0,0-.732.749v-1.749Zm-5.824-2.291a.676.676,0,0,0,.569.329.252.252,0,0,0,.206-.1.371.371,0,0,0,0-.346,1.012,1.012,0,0,0-.1-.183c-.016-.025-.031-.051-.046-.077a1.227,1.227,0,0,1-.125-.628c0-.028,0-.057,0-.087a.5.5,0,0,0,.238.189.226.226,0,0,0,.238-.05c.167-.166-.013-.492-.132-.708l-.006-.011a.6.6,0,0,1-.054-.27.411.411,0,0,0,.216.193.172.172,0,0,0,.164-.045c.088-.088.058-.253-.011-.589a2.764,2.764,0,0,1-.074-.477v-.048a.585.585,0,0,0,.1.173.146.146,0,0,0,.163.038c.175-.073.188-.551.188-.7,0-.3.175-.916.578-.968a.108.108,0,0,0,.092-.085l.011-.058c.055-.285.083-.357.211-.357s.157.072.212.357l.011.058a.107.107,0,0,0,.092.085c.4.052.578.666.578.968,0,.145.013.623.188.7a.144.144,0,0,0,.162-.038.583.583,0,0,0,.1-.173v.048a2.851,2.851,0,0,1-.073.477c-.07.336-.1.5-.012.589a.173.173,0,0,0,.165.045.407.407,0,0,0,.216-.193.609.609,0,0,1-.054.27l-.006.011c-.119.216-.3.542-.132.708a.225.225,0,0,0,.237.05.5.5,0,0,0,.238-.189c0,.032,0,.064,0,.1a1.225,1.225,0,0,1-.125.62c-.015.026-.03.052-.046.077a.952.952,0,0,0-.1.183.372.372,0,0,0,0,.346.254.254,0,0,0,.207.1.669.669,0,0,0,.569-.329v4.412h-.734V327.9a.108.108,0,0,0-.144-.1,2.37,2.37,0,0,0-.363.174c-.019-.047-.043-.105-.072-.171l.638-.753a.1.1,0,0,0,.026-.069v-.967a.11.11,0,0,0-.045-.088.108.108,0,0,0-.1-.014l-.012,0,.136-.206a.111.111,0,0,0,.018-.059v-1.061a.109.109,0,0,0-.127-.106,1.168,1.168,0,0,0-.686.466c-.036-.116-.079-.242-.129-.37l.505-.57a.111.111,0,0,0,.027-.072v-.678a.1.1,0,0,0-.034-.078.106.106,0,0,0-.081-.029.942.942,0,0,0-.539.237l-.015-.036.365-.364a.108.108,0,0,0,.031-.076v-.554a.106.106,0,0,0-.122-.106.729.729,0,0,0-.36.177c-.02-.031-.042-.062-.065-.094l.211-.253a.108.108,0,0,0,.025-.069v-.43a.108.108,0,0,0-.051-.091.106.106,0,0,0-.105,0c-.061.03-.148.075-.22.117l.31-.287a.108.108,0,0,0,.034-.079v-.35a.107.107,0,0,0-.142-.1,1.437,1.437,0,0,0-.2.084,1.023,1.023,0,0,0-.36-.427l0,0,0,0c-.005,0-.011,0-.016-.006a.133.133,0,0,0-.021-.008.16.16,0,0,0-.022,0,.12.12,0,0,0-.019,0l-.024.009-.013.005,0,0,0,0a1.03,1.03,0,0,0-.36.427,1.438,1.438,0,0,0-.2-.084.107.107,0,0,0-.142.1v.35a.109.109,0,0,0,.035.079l.31.287c-.073-.042-.159-.087-.22-.117a.107.107,0,0,0-.156.1v.43a.108.108,0,0,0,.025.069l.211.253c-.023.032-.046.063-.066.094a.723.723,0,0,0-.359-.177.107.107,0,0,0-.123.106v.554a.105.105,0,0,0,.032.076l.364.364-.015.036a.937.937,0,0,0-.539-.237.108.108,0,0,0-.114.107v.678a.106.106,0,0,0,.027.072l.5.57c-.049.128-.092.254-.128.37a1.169,1.169,0,0,0-.687-.466.108.108,0,0,0-.126.106v1.061a.1.1,0,0,0,.018.059l.136.206-.012,0a.108.108,0,0,0-.1.014.11.11,0,0,0-.045.088v.967a.1.1,0,0,0,.026.069l.638.753c-.029.066-.053.124-.072.171a2.419,2.419,0,0,0-.363-.174.108.108,0,0,0-.144.1v.643h-.734Zm-.215,1.176v.312h-.618v-.312Zm-.934-.444a.148.148,0,0,1,.1.051v2.451a1.623,1.623,0,0,0-.2-.09v-2.363A.162.162,0,0,1,487.677,324.866Zm-.759,3.973v-3.1a1.154,1.154,0,0,1,.449.451v2.466l0,.007a.092.092,0,0,0,.005.028l0,.01a.127.127,0,0,0,.02.031h0l.357.357v4.183h-.105v-3.6a.105.105,0,0,0-.029-.073Zm.8,4.645h.01a.84.84,0,0,1-.483.616A2.669,2.669,0,0,0,487.719,333.484Zm-1.647.847h3.752v.873h-3.752Zm-.712,1.088h4.464V336.6H485.36Zm-1.082,1.4h5.546v1.645h-5.546Zm-1.077,1.86h6.623v1.907H483.2Zm-1.088,2.122h7.711v1.908h-7.711Zm44.108,1.908h-7.712V340.8h7.712Z" fill="#231f20"/>
        </g>
      </g>
    </g>
  </g>
</svg>
