<svg xmlns="http://www.w3.org/2000/svg" width="150.671" height="86.56" viewBox="0 0 150.671 86.56">
  <g id="Group_179" data-name="Group 179" transform="translate(-41.495 -294.108)">
    <g id="Group_78" data-name="Group 78">
      <path id="Path_523" data-name="Path 523" d="M75.556,311.794v39.357l13.467-17.686V294.108Z" fill="#03024b"/>
      <path id="Path_524" data-name="Path 524" d="M75.556,356.071l13.467-17.686v-4.92L75.556,351.151Z" fill="#980202"/>
      <path id="Path_525" data-name="Path 525" d="M75.556,360.99,89.024,343.3v-4.92L75.556,356.071Z" fill="#bfbfbf"/>
      <path id="Path_526" data-name="Path 526" d="M75.556,365.91l13.467-17.686V343.3L75.556,360.99Z" fill="#980202"/>
      <path id="Path_527" data-name="Path 527" d="M75.556,370.829l13.467-17.686v-4.92L75.556,365.91Z" fill="#bfbfbf"/>
      <path id="Path_528" data-name="Path 528" d="M75.556,375.749l13.467-17.686v-4.92L75.556,370.829Z" fill="#980202"/>
      <path id="Path_529" data-name="Path 529" d="M75.556,380.668l13.467-17.686v-4.919L75.556,375.749Z" fill="#bfbfbf"/>
    </g>
    <g id="Group_79" data-name="Group 79">
      <path id="Path_530" data-name="Path 530" d="M42.935,375.749H75.622v-4.92H44.375Z" fill="#cb0202"/>
      <path id="Path_531" data-name="Path 531" d="M41.495,380.668H75.622v-4.919H42.935Z" fill="#fff"/>
      <path id="Path_532" data-name="Path 532" d="M44.375,370.83H75.622v-4.92H45.815Z" fill="#fff"/>
      <path id="Path_533" data-name="Path 533" d="M75.622,351.151H50.136l-1.44,4.92H75.622Z" fill="#cb0202"/>
      <path id="Path_534" data-name="Path 534" d="M48.7,356.071l-1.44,4.92H75.622v-4.92Z" fill="#fff"/>
      <path id="Path_535" data-name="Path 535" d="M75.622,311.794H61.657L50.136,351.151H75.622Z" fill="#040264"/>
      <path id="Path_536" data-name="Path 536" d="M45.815,365.91H75.622v-4.92H47.255Z" fill="#cb0202"/>
    </g>
    <g id="Group_83" data-name="Group 83">
      <g id="Group_82" data-name="Group 82">
        <g id="Group_80" data-name="Group 80">
          <rect id="Rectangle_28" data-name="Rectangle 28" width="103.162" height="4.912" transform="translate(89.003 303.933)" fill="#cb0202"/>
          <rect id="Rectangle_29" data-name="Rectangle 29" width="103.162" height="4.912" transform="translate(89.003 328.496)" fill="#fff"/>
          <rect id="Rectangle_30" data-name="Rectangle 30" width="103.162" height="4.912" transform="translate(89.003 333.408)" fill="#cb0202"/>
          <rect id="Rectangle_31" data-name="Rectangle 31" width="103.162" height="4.912" transform="translate(89.003 338.321)" fill="#fff"/>
          <rect id="Rectangle_32" data-name="Rectangle 32" width="103.162" height="4.912" transform="translate(89.003 357.971)" fill="#fff"/>
          <rect id="Rectangle_33" data-name="Rectangle 33" width="103.162" height="4.912" transform="translate(89.003 353.058)" fill="#cb0202"/>
          <rect id="Rectangle_34" data-name="Rectangle 34" width="103.162" height="4.912" transform="translate(89.003 348.146)" fill="#fff"/>
          <rect id="Rectangle_35" data-name="Rectangle 35" width="103.162" height="4.912" transform="translate(89.003 343.233)" fill="#cb0202"/>
          <rect id="Rectangle_36" data-name="Rectangle 36" width="103.162" height="4.912" transform="translate(89.003 294.108)" fill="#cb0202"/>
          <rect id="Rectangle_37" data-name="Rectangle 37" width="103.162" height="4.912" transform="translate(89.003 299.021)" fill="#fff"/>
          <rect id="Rectangle_38" data-name="Rectangle 38" width="103.162" height="4.912" transform="translate(89.003 308.846)" fill="#fff"/>
          <rect id="Rectangle_39" data-name="Rectangle 39" width="103.162" height="4.912" transform="translate(89.003 313.758)" fill="#cb0202"/>
          <rect id="Rectangle_40" data-name="Rectangle 40" width="103.162" height="4.912" transform="translate(89.003 318.671)" fill="#fff"/>
          <rect id="Rectangle_41" data-name="Rectangle 41" width="103.162" height="4.912" transform="translate(89.003 323.583)" fill="#cb0202"/>
        </g>
        <rect id="Rectangle_42" data-name="Rectangle 42" width="51.581" height="39.3" transform="translate(89.003 294.108)" fill="#040264"/>
        <g id="Group_81" data-name="Group 81">
          <path id="Path_537" data-name="Path 537" d="M112.565,326.378a12.619,12.619,0,1,1,4.469-24.424,14.27,14.27,0,1,0,0,23.609A12.593,12.593,0,0,1,112.565,326.378Z" fill="#fecb17"/>
          <path id="Path_538" data-name="Path 538" d="M123.268,301.884l1.258,6.362,3.894-5.186-1.627,6.278,5.758-2.983-4.189,4.95,6.482-.189-5.922,2.642,5.922,2.642-6.482-.189,4.189,4.95-5.758-2.983,1.627,6.278-3.894-5.186-1.258,6.362-1.258-6.362-3.894,5.186,1.627-6.278-5.758,2.983,4.189-4.95-6.482.189,5.922-2.642-5.922-2.642,6.482.189-4.189-4.95,5.758,2.983-1.627-6.278,3.894,5.186Z" fill="#fecb17"/>
        </g>
      </g>
    </g>
  </g>
</svg>
