<svg xmlns="http://www.w3.org/2000/svg" width="150.898" height="86.56" viewBox="0 0 150.898 86.56">
  <g id="Group_180" data-name="Group 180" transform="translate(-223.295 -294.108)">
    <path id="Path_705" data-name="Path 705" d="M257.422,311.794l13.467-17.686v68.874l-13.467,17.686Z" fill="#bfbfbf"/>
    <g id="Group_100" data-name="Group 100">
      <path id="Path_706" data-name="Path 706" d="M223.3,380.668h34.127V311.794H243.458Z" fill="#fff"/>
    </g>
    <g id="Group_108" data-name="Group 108">
      <g id="Group_107" data-name="Group 107">
        <g id="Group_106" data-name="Group 106">
          <g id="Group_102" data-name="Group 102">
            <g id="Group_101" data-name="Group 101">
              <rect id="Rectangle_47" data-name="Rectangle 47" width="103.304" height="34.435" transform="translate(270.89 294.108)" fill="#0738a6"/>
              <rect id="Rectangle_48" data-name="Rectangle 48" width="103.304" height="34.435" transform="translate(270.89 328.543)" fill="#cd1225"/>
            </g>
            <path id="Path_707" data-name="Path 707" d="M330.5,328.543,270.89,294.108v68.87Z" fill="#fff"/>
          </g>
          <g id="Group_105" data-name="Group 105">
            <path id="Path_708" data-name="Path 708" d="M306.04,329.454l.863-.911-.863-.911-6.879.457c-.01-.154-.025-.307-.045-.458l6.18-.785-.769-.812-5.477,1.19a6.829,6.829,0,0,0-1.042-2.517l4.714-3.031-.031-1.118-4.924,3.815c-.094-.122-.191-.24-.292-.356l5.187-4.54-.034-1.255-1.255-.034-4.541,5.187c-.115-.1-.234-.2-.356-.292l3.816-4.925-1.119-.03-3.031,4.713a6.816,6.816,0,0,0-2.516-1.041l1.19-5.477-.813-.769-.784,6.18c-.151-.02-.3-.036-.458-.046l.457-6.878-.912-.863-.911.863.457,6.878c-.154.01-.307.026-.458.046l-.784-6.18-.813.769,1.19,5.477a6.828,6.828,0,0,0-2.517,1.041l-3.03-4.713-1.119.03,3.815,4.925c-.122.093-.24.191-.355.292l-4.541-5.187-1.255.034-.034,1.255,5.187,4.54c-.1.116-.2.234-.292.356l-4.924-3.815-.031,1.118,4.714,3.031a6.83,6.83,0,0,0-1.042,2.517l-5.477-1.19-.769.812,6.18.785c-.02.151-.036.3-.046.458l-6.878-.457-.863.911.863.911,6.878-.457c.01.155.026.307.046.459l-6.18.784.769.812,5.477-1.19a6.823,6.823,0,0,0,1.042,2.517l-4.714,3.031.031,1.118,4.924-3.815c.093.122.191.241.292.356l-5.187,4.541.034,1.254,1.255.034,4.541-5.187c.115.1.233.2.355.293l-3.815,4.924,1.119.031,3.03-4.714a6.846,6.846,0,0,0,2.517,1.042l-1.19,5.476.813.77.784-6.18c.151.02.3.035.458.045l-.457,6.878.911.864.912-.864-.457-6.878c.154-.01.307-.025.458-.045l.784,6.18.813-.77-1.19-5.476a6.835,6.835,0,0,0,2.516-1.042l3.031,4.714,1.119-.031L296.476,334c.122-.094.241-.191.356-.293l4.541,5.187,1.255-.034.034-1.254-5.187-4.541q.151-.172.292-.356l4.924,3.815.031-1.118-4.714-3.031a6.822,6.822,0,0,0,1.042-2.517l5.477,1.19.769-.812-6.18-.784c.02-.152.035-.3.045-.459Z" fill="#fbd023"/>
            <g id="Group_104" data-name="Group 104">
              <path id="Path_709" data-name="Path 709" d="M320.982,324.93l0,2.76,2.624.856-2.626.849,0,2.76-1.619-2.235-2.626.849,1.625-2.231-1.619-2.235,2.624.856Z" fill="#fbd023"/>
              <g id="Group_103" data-name="Group 103">
                <path id="Path_710" data-name="Path 710" d="M279.7,352.173l-2.06,1.836,1.11,2.527-2.383-1.392-2.06,1.837.587-2.7-2.383-1.392,2.746-.275.587-2.7,1.11,2.527Z" fill="#fbd023"/>
                <path id="Path_711" data-name="Path 711" d="M274.313,300.1l2.056,1.842,2.387-1.386-1.116,2.524,2.056,1.842-2.746-.282-1.116,2.524-.581-2.7-2.746-.282,2.387-1.386Z" fill="#fbd023"/>
              </g>
            </g>
          </g>
        </g>
      </g>
    </g>
  </g>
</svg>
