<svg xmlns="http://www.w3.org/2000/svg" width="150.898" height="86.56" viewBox="0 0 150.898 86.56">
  <defs>
    <style>
      .cls-1 {
        fill: #b9a71c;
      }

      .cls-2 {
        fill: #bfbfbf;
      }

      .cls-3 {
        fill: #f6df25;
      }

      .cls-4 {
        fill: #fff;
      }

      .cls-5 {
        fill: #ce1225;
      }
    </style>
  </defs>
  <g id="Group_174" data-name="Group 174" transform="translate(-41.495 -158.281)">
    <g id="Group_26" data-name="Group 26">
      <path id="Path_167" data-name="Path 167" d="M75.621,207.9l13.467-14.241v-14.31L75.621,193.592Z"/>
      <path id="Path_168" data-name="Path 168" class="cls-1" d="M75.621,244.841l13.467-17.686V193.661L75.621,207.9Z"/>
      <path id="Path_169" data-name="Path 169" class="cls-2" d="M75.621,193.592l13.467-14.241V163.095L75.621,177.336Z"/>
      <path id="Path_170" data-name="Path 170" class="cls-1" d="M75.621,175.967v1.369l13.467-14.241v-4.814Z"/>
    </g>
    <g id="Group_27" data-name="Group 27">
      <path id="Path_171" data-name="Path 171" d="M53.647,203.331,75.622,207.9v-14.31L57.6,189.842Z"/>
      <path id="Path_172" data-name="Path 172" class="cls-3" d="M41.495,244.841H75.622V207.9l-21.975-4.571Z"/>
      <path id="Path_173" data-name="Path 173" class="cls-3" d="M69.04,175.967l6.582,1.369v-1.369Z"/>
      <path id="Path_174" data-name="Path 174" class="cls-4" d="M61.657,175.967,57.6,189.842l18.026,3.749V177.336l-6.582-1.369Z"/>
    </g>
    <g id="Group_43" data-name="Group 43">
      <g id="Group_42" data-name="Group 42">
        <g id="Group_41" data-name="Group 41">
          <g id="Group_28" data-name="Group 28">
            <path id="Path_175" data-name="Path 175" class="cls-3" d="M192.393,158.281H89.089v4.813l103.3,28.649Z"/>
            <path id="Path_176" data-name="Path 176" class="cls-3" d="M89.089,227.151h103.3v-4.843l-103.3-28.649Z"/>
            <path id="Path_177" data-name="Path 177" class="cls-4" d="M192.393,191.744l-103.3-28.649v16.255L192.393,208Z"/>
            <path id="Path_178" data-name="Path 178" d="M89.089,179.349v14.309l103.3,28.649V208Z"/>
          </g>
          <g id="Group_40" data-name="Group 40">
            <g id="Group_32" data-name="Group 32">
              <g id="Group_29" data-name="Group 29">
                <path id="Path_179" data-name="Path 179" class="cls-5" d="M131.044,185.718a5.231,5.231,0,0,0,1.758-.5,6.423,6.423,0,0,1,1.494-.574c.443-.083.706,0,.491.1a11.437,11.437,0,0,0-1.423.43,13.925,13.925,0,0,1-2.1.849c-.49.12-.241.325-.131.435a1.858,1.858,0,0,0,.774.447,2,2,0,0,0,1.126-.167,4.64,4.64,0,0,0,.9-.583,6.41,6.41,0,0,1,.834-.483,1.959,1.959,0,0,1,.8-.258c.526,0,.633.024.538.119-.132.132-.969.323-1.459.562a9.369,9.369,0,0,0-1.638,1.076c-.235.235.447.519.591.572a1.723,1.723,0,0,0,1.42-.227,9.438,9.438,0,0,0,1.1-.842,2.929,2.929,0,0,1,1.219-.641c.032-.006.076,0,.086.026s-.017.053-.04.07l-1.118.84c-.318.239-.607.512-.942.728-.588.379.1.863.539.925a2.159,2.159,0,0,0,1.374-.47,19.5,19.5,0,0,0,2.152-1.9s-.036.083-.4.705.1.885.275.885.485-.126.6-.012a1.366,1.366,0,0,0,.368,1.891,1.211,1.211,0,0,1,.312-.491c.015-.013.193-.12.193-.129,0,.009.178.116.193.129a1.211,1.211,0,0,1,.312.491,1.366,1.366,0,0,0,.368-1.891c.113-.114.418.012.6.012s.633-.263.275-.885-.4-.705-.4-.705a19.5,19.5,0,0,0,2.152,1.9,2.159,2.159,0,0,0,1.374.47c.443-.062,1.126-.546.539-.925-.335-.216-.624-.489-.942-.728l-1.118-.84c-.023-.017-.049-.042-.04-.07s.054-.032.086-.026a2.929,2.929,0,0,1,1.219.641,9.438,9.438,0,0,0,1.1.842,1.722,1.722,0,0,0,1.42.227c.144-.053.826-.337.591-.572a9.369,9.369,0,0,0-1.638-1.076c-.49-.239-1.327-.43-1.459-.562-.1-.095.012-.119.538-.119a1.959,1.959,0,0,1,.8.258,6.409,6.409,0,0,1,.834.483,4.61,4.61,0,0,0,.9.583,2,2,0,0,0,1.125.167,1.855,1.855,0,0,0,.775-.447c.11-.11.359-.315-.132-.435a13.955,13.955,0,0,1-2.1-.849,11.487,11.487,0,0,0-1.423-.43c-.215-.1.048-.179.49-.1a6.414,6.414,0,0,1,1.495.574,5.224,5.224,0,0,0,1.758.5,1.934,1.934,0,0,0,1.8-.9c.622-.885.295-.726-.4-.678a4.506,4.506,0,0,1-2.3-.135,8.154,8.154,0,0,1-2.236-1.148c-.315-.2-.6-.455-.912-.659a4.437,4.437,0,0,0-4.75.046,2.874,2.874,0,0,0-.374.315c-.031.029-.061.06-.092.09V180.42l-.436.476-.436-.476v2.233c-.031-.03-.061-.061-.092-.09a2.818,2.818,0,0,0-.375-.315,4.435,4.435,0,0,0-4.749-.046c-.315.2-.6.455-.912.659a8.154,8.154,0,0,1-2.236,1.148,4.506,4.506,0,0,1-2.3.135c-.693-.048-1.02-.207-.4.678A1.934,1.934,0,0,0,131.044,185.718Z"/>
                <path id="Path_180" data-name="Path 180" class="cls-5" d="M142.391,189.714c-.114-.114-.452-.012-.579.038a1.055,1.055,0,0,0-.4.286c-.037.043-.246.347-.317.276s-.088-.841-.351-.841-.287.777-.351.841-.28-.233-.317-.276a1.051,1.051,0,0,0-.4-.286c-.126-.05-.464-.152-.578-.038s.2.389.51.695a1.608,1.608,0,0,1,.359,1.268,3.549,3.549,0,0,1-.427,1.5,2.818,2.818,0,0,0-.1,1.967c.245.478.388.49.538.538s.257-.1.388-.412a.776.776,0,0,1,.289-.357.173.173,0,0,1,.188,0,.776.776,0,0,1,.289.357c.131.316.239.46.388.412s.293-.06.538-.538a2.818,2.818,0,0,0-.1-1.967,3.535,3.535,0,0,1-.427-1.5,1.608,1.608,0,0,1,.359-1.268C142.188,190.1,142.493,189.816,142.391,189.714Z"/>
                <path id="Path_181" data-name="Path 181" class="cls-5" d="M138.8,201.21a2.113,2.113,0,0,0,.638,1.02c.239.1.259-.249.315-.4a3.851,3.851,0,0,1,.4-.786,4.186,4.186,0,0,1,.283-.382c.051-.06.1-.12.158-.178.018-.018.081-.069.117-.107a.036.036,0,0,1,.052,0c.036.038.1.089.117.107.054.058.107.118.158.178a4.38,4.38,0,0,1,.283.382,3.852,3.852,0,0,1,.4.786c.056.149.076.494.315.4a2.113,2.113,0,0,0,.638-1.02,3.746,3.746,0,0,0-.239-2.176,5.094,5.094,0,0,1-.526-1.857,1.743,1.743,0,0,1,.215-.981c.085-.085.363-.239.34-.384a.126.126,0,0,0-.085-.091.534.534,0,0,0-.187-.023.8.8,0,0,0-.554.259c-.089.089-.267.328-.391.164a.344.344,0,0,1-.045-.14c-.009-.037-.021-.074-.034-.111a1.88,1.88,0,0,0-.1-.251c-.064-.129-.169-.3-.33-.3s-.266.171-.33.3a1.759,1.759,0,0,0-.1.251c-.012.037-.024.074-.033.111a.36.36,0,0,1-.045.14c-.124.164-.3-.075-.391-.164a.8.8,0,0,0-.554-.259.543.543,0,0,0-.188.023.126.126,0,0,0-.084.091c-.023.145.255.3.34.384a1.743,1.743,0,0,1,.215.981,5.094,5.094,0,0,1-.526,1.857A3.746,3.746,0,0,0,138.8,201.21Z"/>
                <path id="Path_182" data-name="Path 182" class="cls-5" d="M138.284,201.817a1.242,1.242,0,0,1-.594-.343.208.208,0,0,0-.064-.058c-.089-.042-.089.074-.089.129a3.4,3.4,0,0,0,6.408,0c0-.055,0-.171-.089-.129a.207.207,0,0,0-.064.058,1.242,1.242,0,0,1-.594.343,2.667,2.667,0,0,0-.419.138,1.3,1.3,0,0,0-.313.264,1.724,1.724,0,0,1-.733.49c-.526.137-.281-.15-.245-.281a.793.793,0,0,0-.125-.807c-.213-.276-.453-.58-.562-.718a.076.076,0,0,0-.12,0c-.109.138-.349.442-.562.718a.793.793,0,0,0-.125.807c.036.131.281.418-.245.281a1.724,1.724,0,0,1-.733-.49,1.3,1.3,0,0,0-.313-.264A2.668,2.668,0,0,0,138.284,201.817Z"/>
                <path id="Path_183" data-name="Path 183" class="cls-5" d="M140.741,208.509a13.349,13.349,0,0,0,10.416-21.7,11.778,11.778,0,1,1-20.833,0,13.35,13.35,0,0,0,10.417,21.7Z"/>
                <path id="Path_184" data-name="Path 184" class="cls-5" d="M156.781,210.185a1.276,1.276,0,0,0-.234-.554,1.362,1.362,0,0,0-.643-.451c-.125-.049-.385-.082-.459-.21-.086-.15.162-.486.2-.665a1.014,1.014,0,0,0-.509-1.084,2.184,2.184,0,0,0-1.2-.278,3.382,3.382,0,0,0-.727.169c-.074.022-.358.152-.43.08-.1-.1.1-.3.49-.92a1.4,1.4,0,0,0-2.116-1.714c-.206.158-.415.312-.623.468a29.844,29.844,0,0,1-4.4,3.055,13.564,13.564,0,0,1-10.776,0,29.845,29.845,0,0,1-4.4-3.055c-.208-.156-.417-.31-.624-.468a1.4,1.4,0,0,0-2.115,1.714c.394.621.585.825.49.92-.072.072-.356-.058-.43-.08a3.382,3.382,0,0,0-.727-.169,2.189,2.189,0,0,0-1.2.278,1.015,1.015,0,0,0-.508,1.084c.037.179.285.515.2.665-.074.128-.334.161-.46.21a1.364,1.364,0,0,0-.642.451,1.264,1.264,0,0,0-.234.554c-.006.034-.02.507.03.487a9.414,9.414,0,0,1,1.072-.455,3.641,3.641,0,0,1,1.227-.075,5.572,5.572,0,0,1,2.95,1.331,2.851,2.851,0,0,0,2.484.764.739.739,0,0,0,.585-.478c.063-.169.012-.713.123-.824.048-.048.048-.132.658.311a9.458,9.458,0,0,0,2.929,1.183,16.821,16.821,0,0,0,7.963,0,9.454,9.454,0,0,0,2.93-1.183c.61-.443.61-.359.657-.311.112.111.061.655.124.824a.736.736,0,0,0,.585.478,2.851,2.851,0,0,0,2.484-.764,5.572,5.572,0,0,1,2.95-1.331,3.643,3.643,0,0,1,1.227.075,9.416,9.416,0,0,1,1.072.455C156.8,210.692,156.786,210.219,156.781,210.185Z"/>
                <path id="Path_185" data-name="Path 185" class="cls-5" d="M139.252,180.727l.831-.831.658.717.658-.717.831.831.663-.795,1.052.848a9.234,9.234,0,0,1-.848-2.819,5.5,5.5,0,0,1-4.712,0,9.234,9.234,0,0,1-.848,2.819l1.052-.848Z"/>
                <path id="Path_186" data-name="Path 186" class="cls-5" d="M140.741,178.3c1.281,0,2.319-.295,2.319-.66,0-.316-.78-.581-1.823-.645v.893h-.992v-.893c-1.043.064-1.824.329-1.824.645C138.421,178,139.46,178.3,140.741,178.3Z"/>
                <path id="Path_187" data-name="Path 187" class="cls-5" d="M140.436,173.074V177.7h.61v-2.243l2.039,1.007-1.092-1.491,1.515-.6-2.461-1.3c.154-.053.256-.146.256-.251,0-.165-.252-.3-.562-.3s-.562.134-.562.3C140.179,172.929,140.281,173.021,140.436,173.074Z"/>
              </g>
              <g id="Group_30" data-name="Group 30">
                <path id="Path_188" data-name="Path 188" class="cls-3" d="M129.884,199.018a1.858,1.858,0,0,0-.518.255.76.76,0,0,0-.239.383,1.23,1.23,0,0,0-.008.725,1.636,1.636,0,0,0,.327.654c.118.144.329.4.566.366a.2.2,0,0,0,.135-.055c.114-.131-.118-.389-.055-.718a.443.443,0,0,1,.1-.247c.233-.238.79,0,.917.048.418.175.746.5.773.757a.342.342,0,0,1-.024.184c-.016.035-.048.089-.263.223-.14.087-.211.131-.239.111s-.01-.1.032-.366a1.407,1.407,0,0,0,.032-.263c-.045-.258-.41-.384-.455-.4-.028-.01-.392-.127-.486.008-.069.1.086.225.088.558a.485.485,0,0,1-.08.327.454.454,0,0,1-.319.143.809.809,0,0,1-.486-.135,2.175,2.175,0,0,1-.59-.486,1.748,1.748,0,0,1-.526-.957,1.256,1.256,0,0,1,.271-.957,1.217,1.217,0,0,1,.558-.342.655.655,0,0,1,.518-.024c.014.007.119.063.112.119S129.939,199,129.884,199.018Z"/>
                <path id="Path_189" data-name="Path 189" class="cls-3" d="M134.452,202.715a.162.162,0,0,0-.114-.114c-.022-.006-.1-.023-.251.108-.17.151-.161.264-.293.46a1.612,1.612,0,0,1-.436.407,1.038,1.038,0,0,1-.431.221c-.021,0-.273.048-.317-.042-.027-.059.045-.15.078-.191.069-.087.117-.089.233-.186s.184-.152.18-.227-.112-.152-.186-.179c-.055-.021-.154-.043-.49.077-.188.068-.259.111-.49.192-.269.093-.321.086-.347.059-.07-.072.052-.291.06-.3.085-.149.178-.189.377-.341.419-.322.48-.51.5-.568s.052-.19-.018-.257a.274.274,0,0,0-.293.012c-.175.1-.123.262-.347.544a.874.874,0,0,1-.251.227.655.655,0,0,1-.281.1c-.226.018-.506-.1-.556-.275a2.354,2.354,0,0,0-.036-.251c-.029-.115-.053-.136-.065-.144a.244.244,0,0,0-.287.084.332.332,0,0,0-.042.287.487.487,0,0,0,.185.275c.122.087.179.038.359.143.09.053.146.086.179.156.043.091,0,.144.048.257a.334.334,0,0,0,.114.143c.078.053.128.028.2.078a.288.288,0,0,1,.107.143c.068.182-.113.317-.131.652,0,.06-.008.159.03.173.054.021.124-.161.317-.293a.852.852,0,0,1,.352-.131,2.731,2.731,0,0,1,.586.03,1.458,1.458,0,0,0,.5-.072c.13-.046.144-.079.628-.49.029-.024.2-.208.544-.574C134.4,202.865,134.468,202.792,134.452,202.715Zm-2.28,1.09c-.036.029-.09.011-.123,0-.013,0-.114-.038-.112-.08s.1-.081.171-.06c.035.01.09.039.092.084A.078.078,0,0,1,132.172,203.8Zm.331-.335a.2.2,0,0,1-.191.02c-.015,0-.107-.031-.108-.072s.079-.069.151-.1c.092-.034.157-.058.188-.028S132.557,203.422,132.5,203.47Z"/>
                <path id="Path_190" data-name="Path 190" class="cls-3" d="M134.723,202.892c.116-.043.282.016.3.1s-.106.155-.279.3c-.557.473-.432.684-.893,1.044-.056.043-.147.109-.151.207a.307.307,0,0,0,.288.283c.1,0,.181-.09.275-.2.119-.134.11-.193.192-.228a.29.29,0,0,1,.317.078c.059.078.033.17.071.179s.069-.084.168-.167.24-.135.269-.1-.174.194-.233.49a.562.562,0,0,0,.024.364.61.61,0,0,0,.711.245.755.755,0,0,0,.424-.537c.043-.187,0-.349.114-.431a.174.174,0,0,1,.161-.03c.157.072.075.517.066.562a.9.9,0,0,1-.173.425.917.917,0,0,1-.467.287,1.067,1.067,0,0,1-.9-.024.651.651,0,0,1-.3-.329c-.078-.227.041-.444-.06-.514-.04-.028-.091-.017-.155,0-.409.107-.51.245-.7.245a.515.515,0,0,1-.448-.3c-.071-.18.03-.363.179-.622a6.444,6.444,0,0,1,.9-1.064,1.084,1.084,0,0,1,.185-.191A.357.357,0,0,1,134.723,202.892Z"/>
                <path id="Path_191" data-name="Path 191" class="cls-3" d="M133.408,205.2a.125.125,0,0,0,.063.227.129.129,0,0,0,.124-.1.131.131,0,0,0-.028-.108A.125.125,0,0,0,133.408,205.2Z"/>
                <path id="Path_192" data-name="Path 192" class="cls-3" d="M136.275,204.036a.163.163,0,0,1-.221-.084.151.151,0,0,1,.1-.143c.071-.034.172-.018.2.035a.151.151,0,0,1-.018.114A.16.16,0,0,1,136.275,204.036Z"/>
                <path id="Path_193" data-name="Path 193" class="cls-3" d="M138.236,204.7a.14.14,0,0,0-.018.15.165.165,0,0,0,.239.042.135.135,0,0,0,.036-.1.148.148,0,0,0-.048-.1A.155.155,0,0,0,138.236,204.7Z"/>
                <path id="Path_194" data-name="Path 194" class="cls-3" d="M143.61,205.656c-.441-.1-.342-.094-.639-.149a1.16,1.16,0,0,0-.706-.006.221.221,0,0,0-.131.125.181.181,0,0,0,.036.185c.106.09.3-.122.5-.036.077.033.062.068.209.156s.2.08.2.119c.016.087-.259.208-.412.264a1.255,1.255,0,0,1-.723.107c-.223-.048-.311-.159-.479-.107-.109.033-.14.1-.245.1-.073,0-.093-.039-.263-.131a.813.813,0,0,0-.239-.108c-.135-.014-.156.079-.371.132-.055.013-.286.069-.388-.042a.287.287,0,0,1-.036-.06c-.136-.2-.814.177-1.094-.066a.377.377,0,0,1-.138-.233c-.01-.1.04-.152.006-.2-.021-.029-.061-.033-.263-.018a2.277,2.277,0,0,1-.329.018.5.5,0,0,1-.221-.048c-.038-.021-.1-.066-.2-.281-.124-.26-.1-.336-.2-.407a.409.409,0,0,0-.269-.059.632.632,0,0,0-.383.173.733.733,0,0,0-.245.353.476.476,0,0,0-.006.358c.076.148.238.153.245.251.006.073-.077.138-.161.192a1.808,1.808,0,0,1-.795.263,1.57,1.57,0,0,1-.837-.1,1.443,1.443,0,0,0-.532-.209c-.076-.008-.247-.027-.293.054s.068.245.143.323a1.1,1.1,0,0,0,.729.263,2.524,2.524,0,0,0,1.2-.036,1.418,1.418,0,0,0,.688-.377c.12-.135.2-.294.406-.388a.92.92,0,0,1,.287-.066c.18-.024.521-.068.6.071.048.087-.052.161,0,.264s.219.13.353.149a1.58,1.58,0,0,0,.311.006c.559-.022.675,0,.729.078.037.053.01.083.048.131.089.113.319.049.544.012a3.719,3.719,0,0,1,1.148.006,2.626,2.626,0,0,0,.46.066,1.76,1.76,0,0,0,.418-.024,1.673,1.673,0,0,0,.67-.3c.295-.217.251-.328.46-.394a2.979,2.979,0,0,0,.455-.138c.125-.054.15-.08.149-.1C144,205.735,143.852,205.708,143.61,205.656Zm-6.277-.108a.163.163,0,0,1-.173.1.168.168,0,0,1-.15-.12c0-.032.017-.071.06-.149s.052-.075.06-.078c.06-.02.134.067.144.078A.189.189,0,0,1,137.333,205.548Z"/>
                <path id="Path_195" data-name="Path 195" class="cls-3" d="M145.986,205.02c-.1-.327-.142-.273-.239-.613-.091-.317-.113-.567-.3-.686a.227.227,0,0,0-.184-.04c-.1.034-.125.169-.127.183a.406.406,0,0,0,.072.279,4.334,4.334,0,0,1,.271.638c.1.256.026.208.159.694.077.282.122.376.08.518a.555.555,0,0,1-.263.318c-.208.1-.3-.052-.71-.023a1.5,1.5,0,0,0-.534.1c-.129.056-.211.118-.319.088-.078-.022-.112-.077-.239-.1a.211.211,0,0,0-.143,0c-.1.052-.1.228-.1.255a.226.226,0,0,0,.048.168c.066.06.147,0,.311.024a.427.427,0,0,1,.279.135c.08.106.006.186.08.295a.492.492,0,0,0,.382.152.415.415,0,0,0,.319-.064c.073-.067.036-.123.128-.279a.586.586,0,0,1,.183-.207.515.515,0,0,1,.223-.08,1.222,1.222,0,0,0,.7-.51C146.266,205.931,146.138,205.514,145.986,205.02Zm-1.331,2c-.06.028-.127-.018-.16-.04s-.083-.056-.087-.111a.156.156,0,0,1,.143-.152.165.165,0,0,1,.167.128A.153.153,0,0,1,144.655,207.021Z"/>
                <path id="Path_196" data-name="Path 196" class="cls-3" d="M146.711,202.892a.176.176,0,0,0,.144.207.178.178,0,0,0,.183-.111.154.154,0,0,0-.032-.176c-.015-.009-.032-.011-.088,0C146.792,202.837,146.729,202.849,146.711,202.892Z"/>
                <path id="Path_197" data-name="Path 197" class="cls-3" d="M151.295,200.931c-.005-.008-.1-.161-.16-.143s-.072.291-.072.318c.006.22.076.286.032.391-.017.041-.055.1-.247.183a4.463,4.463,0,0,1-.6.168,1.212,1.212,0,0,0-.5.366c-.179.22-.165.372-.406.606-.144.139-.211.146-.247.144-.144-.01-.16-.19-.351-.271a.507.507,0,0,0-.439.032.778.778,0,0,0-.279.374c-.023.066-.036.135-.063.136-.046,0-.04-.2-.152-.247a.228.228,0,0,0-.223.055.377.377,0,0,0-.08.343c.028.139.1.161.152.279a.636.636,0,0,1-.168.733.575.575,0,0,1-.39.072c-.1-.007-.3-.021-.383-.151s-.01-.289-.056-.3-.077.121-.2.151a.2.2,0,0,1-.183-.039c-.042-.04-.04-.088-.056-.216-.024-.189-.036-.284-.08-.311-.076-.045-.218.038-.295.12a.373.373,0,0,0-.1.175c-.036.182.138.279.271.526a4.487,4.487,0,0,1,.175.813c.055.313.079.479.112.479s.035-.122.111-.407a1.107,1.107,0,0,1,.088-.271c.148-.175.433.033.829-.087a1.1,1.1,0,0,0,.558-.423.836.836,0,0,0,.207-.59c-.022-.143-.1-.259-.04-.343.03-.039.075-.049.144-.063a.92.92,0,0,1,.534.087c.151.058.173.087.183.1.061.1,0,.239-.064.367-.336.722-.3.668-.334.725-.191.278-.323.343-.415.622-.018.056-.076.229-.024.263.071.046.3-.195.407-.3a2.1,2.1,0,0,0,.605-.813c.15-.514-.156-.887.1-1.18a.588.588,0,0,1,.183-.135c.286-.141.471.039.734-.08a.66.66,0,0,0,.311-.335c.091-.224-.043-.305.032-.478.116-.27.487-.177.725-.518a.924.924,0,0,0,.135-.335A.792.792,0,0,0,151.295,200.931Zm-2.5,2.316c-.062.053-.163.009-.186,0-.084-.036-.169-.126-.149-.192.01-.033.046-.052.119-.089.052-.027.077-.04.108-.036.073.009.113.094.12.107C148.83,203.09,148.853,203.2,148.794,203.247Zm1.333-.532c-.027.039-.09.133-.168.119a.117.117,0,0,1-.083-.072.167.167,0,0,1,.03-.149c.017-.03.07-.123.161-.126a.135.135,0,0,1,.108.048C150.209,202.593,150.154,202.674,150.127,202.715Z"/>
                <path id="Path_198" data-name="Path 198" class="cls-3" d="M150.27,199.965c.053-.1.135-.086.156-.156a.172.172,0,0,0-.1-.185c-.061-.026-.12.006-.209.054a.442.442,0,0,0-.2.167.364.364,0,0,0-.054.245.469.469,0,0,0,.131.227c.116.142.162.133.186.21.039.127-.063.231-.012.281.03.029.092.018.131,0,.1-.047.068-.151.173-.323a1.548,1.548,0,0,0,.192-.293c.039-.1.025-.12.018-.126-.03-.025-.1.053-.245.078-.05.009-.154.027-.192-.024S150.267,199.971,150.27,199.965Z"/>
                <path id="Path_199" data-name="Path 199" class="cls-3" d="M150.587,199.528c.106.244.515.42.789.694.315.315.289.6.538.639a.47.47,0,0,0,.317-.077c.181-.119.144-.279.293-.509.187-.287.369-.228.526-.478a.96.96,0,0,0,.1-.663c-.064-.34-.246-.285-.885-1.041a1.418,1.418,0,0,0-.586-.424c-.12-.043-.179-.04-.215-.012-.094.073-.058.335.078.49.12.138.238.1.5.2a1.565,1.565,0,0,1,.628.5.825.825,0,0,1,.2.675c-.012.035-.047.142-.126.162s-.132-.044-.346-.251c-.954-.923-.246-.224-.383-.359-.157-.154-.2-.2-.239-.185-.078.023-.116.221-.072.388a1.52,1.52,0,0,0,.347.478c.121.139.164.18.173.263a.343.343,0,0,1-.149.311.247.247,0,0,1-.144.048c-.125-.005-.2-.142-.317-.317a3.3,3.3,0,0,0-.568-.669c-.078-.065-.081-.055-.257-.192-.134-.1-.169-.139-.2-.125-.067.028-.057.221-.03.341A.659.659,0,0,0,150.587,199.528Z"/>
                <path id="Path_200" data-name="Path 200" class="cls-3" d="M151.783,197c-.067.031-.078.209-.012.335a.414.414,0,0,0,.155.156,3.437,3.437,0,0,0,.449.263c.444.22.586.72.669.681.045-.021.016-.17.012-.191-.075-.388-.4-.465-.986-1.04C151.944,197.079,151.846,196.971,151.783,197Z"/>
              </g>
              <g id="Group_31" data-name="Group 31">
                <path id="Path_201" data-name="Path 201" class="cls-3" d="M131.726,207.132a.434.434,0,0,0-.279-.223.683.683,0,0,0-.542.072c-.158.086-.128.141-.271.215a.8.8,0,0,1-.606.024.854.854,0,0,1-.335-.247c-.26-.277-.2-.458-.43-.6-.13-.08-.322-.129-.391-.056a.169.169,0,0,0-.024.136c.025.122.147.153.295.287.113.1.077.116.207.255a1.364,1.364,0,0,0,.439.327,1.725,1.725,0,0,0,.438.111c.257.044.335.024.423.1a.708.708,0,0,1,.151.271c.061.153.05.206.1.231.1.055.294-.12.39-.207C131.512,207.631,131.808,207.364,131.726,207.132Zm-.51.335c-.035.013-.1.027-.136-.008a.149.149,0,0,1,.072-.207.14.14,0,0,1,.151.136C131.295,207.437,131.23,207.462,131.216,207.467Z"/>
                <path id="Path_202" data-name="Path 202" class="cls-3" d="M132.826,207.268a.433.433,0,0,0-.112.279,2.141,2.141,0,0,1-.183.606c-.128.238-.3.325-.255.446a.132.132,0,0,0,.087.088c.135.029.3-.27.423-.478.2-.355.125-.375.279-.566.061-.076.137-.153.127-.255a.214.214,0,0,0-.127-.176A.253.253,0,0,0,132.826,207.268Z"/>
                <path id="Path_203" data-name="Path 203" class="cls-3" d="M131.359,208.472c.38.246.527.519.837.661a.764.764,0,0,0,.534.064.709.709,0,0,0,.454-.422c.083-.227-.042-.314.056-.59a.737.737,0,0,1,.231-.335c.026-.02.252-.2.375-.112.078.053.072.181.072.192-.009.159-.148.2-.271.374-.168.24-.029.335-.2.622-.116.2-.23.234-.239.391a.455.455,0,0,0,.1.287,1.673,1.673,0,0,0,1.172.478c.445.012.74-.118.892.064.058.068.08.162.2.239a.634.634,0,0,0,.279.079c.417.062.493.021.558.1.093.109,0,.264.1.351a.284.284,0,0,0,.216.032c.248-.028.3-.2.47-.184.086.007.148.061.271.168.182.157.193.264.295.279s.224-.1.279-.168a.982.982,0,0,0,.215-.6c.025-.371-.113-.467-.008-.63.05-.078.075-.046.335-.287.038-.035.067-.064.1-.056.08.022.068.3.064.4-.02.47-.062,1.449-.7,1.745a.9.9,0,0,1-.726.024c-.223-.122-.2-.322-.414-.39-.27-.087-.473.182-.662.055a.81.81,0,0,1-.223-.279c-.035-.068-.036-.1-.072-.119-.09-.061-.189.046-.374.048a.484.484,0,0,1-.359-.144c-.1-.125-.02-.259-.112-.335s-.225-.023-.279-.008a2.1,2.1,0,0,1-1.562-.3c-.291-.22-.273-.436-.614-.574-.168-.068-.183-.021-.43-.1a1.845,1.845,0,0,1-.749-.438,1.113,1.113,0,0,1-.279-.447c-.017-.053-.049-.16-.008-.191S131.311,208.44,131.359,208.472Z"/>
                <path id="Path_204" data-name="Path 204" class="cls-3" d="M138.11,211.969c.388,0,.7.023.784.03a2.811,2.811,0,0,0,.813-.042.8.8,0,0,0,.34-.149.613.613,0,0,0,.2-.24c.064-.144.007-.192.054-.412a.487.487,0,0,1,.179-.347c.056-.034.155-.066.209-.024s.046.143-.006.365a1.985,1.985,0,0,1-.245.735,1.116,1.116,0,0,1-.478.347c-.257.1-.32.028-.921.06-.455.024-.618.078-.855-.036-.126-.061-.289-.178-.269-.239C137.928,211.972,138.033,211.97,138.11,211.969Z"/>
                <path id="Path_205" data-name="Path 205" class="cls-3" d="M139.42,209.859c-.1.256.014.426.042.867a2.4,2.4,0,0,1-.042.753c-.025.1-.062.219-.042.227s.131-.163.2-.317a2.558,2.558,0,0,0,.191-.687c.06-.328.038-.366.09-.634.019-.1.023-.2.036-.293.016-.122.023-.154,0-.179-.056-.062-.234-.016-.347.077A.459.459,0,0,0,139.42,209.859Z"/>
                <path id="Path_206" data-name="Path 206" class="cls-3" d="M141,209.811c-.059.221.075.293.132.633s-.057.407-.03.981c.008.175.019.412.071.418s.153-.294.2-.514a3.411,3.411,0,0,0,.047-.562c.007-.135.023-.5.006-.992-.008-.246-.018-.322-.065-.341C141.264,209.4,141.058,209.587,141,209.811Z"/>
                <path id="Path_207" data-name="Path 207" class="cls-3" d="M142.184,210.592c.074.19.261.15.414.351s.173.491.064.582c-.064.052-.122-.008-.311.024a.962.962,0,0,0-.375.159c-.152.094-.316.2-.3.311a.182.182,0,0,0,.119.135c.147.053.26-.129.558-.263s.378-.033.526-.159a.867.867,0,0,0,.2-.7,1.247,1.247,0,0,0-.151-.526c-.091-.168-.209-.385-.407-.4a.346.346,0,0,0-.294.143A.365.365,0,0,0,142.184,210.592Z"/>
                <path id="Path_208" data-name="Path 208" class="cls-3" d="M145.133,210.185c-.087-.032-.255.178-.335.359a.632.632,0,0,0-.04.542c.116.2.4.215.686.231a2.361,2.361,0,0,0,.893-.127,2.016,2.016,0,0,0,1.307-1.116c.161-.307.141-.389.119-.431-.032-.062-.08-.061-.326-.239a1.151,1.151,0,0,1-.136-.1c-.109-.147.022-.3-.016-.622-.008-.069-.035-.3-.135-.319-.069-.015-.157.069-.2.152-.076.146.012.242.008.542a.61.61,0,0,1-.071.382c-.09.123-.2.111-.287.255-.051.088-.079.211-.04.239.069.05.257-.26.51-.231a.319.319,0,0,1,.263.2.338.338,0,0,1-.064.271.706.706,0,0,1-.3.264c-.753.375-.775.507-1.124.534a.685.685,0,0,1-.558-.112C145.076,210.638,145.248,210.228,145.133,210.185Z"/>
                <path id="Path_209" data-name="Path 209" class="cls-3" d="M146.345,208.512a.15.15,0,0,0-.136.159.193.193,0,0,0,.263.1c.036-.036.019-.111,0-.152C146.467,208.6,146.423,208.512,146.345,208.512Z"/>
                <path id="Path_210" data-name="Path 210" class="cls-3" d="M146.719,211.325c-.089.013-.184.079-.175.128s.093.069.159.064c.1-.009.2-.1.184-.144S146.784,211.316,146.719,211.325Z"/>
                <path id="Path_211" data-name="Path 211" class="cls-3" d="M145.93,211.525a.16.16,0,0,0,.12.215.152.152,0,0,0,.151-.12.146.146,0,0,0-.056-.151A.154.154,0,0,0,145.93,211.525Z"/>
                <path id="Path_212" data-name="Path 212" class="cls-3" d="M150.013,206.995a.576.576,0,0,0-.305-.353.5.5,0,0,0-.526.132c-.037.042-.061.087-.1.616-.022.33-.021.45.053.5.046.028.106.02.21.006.155-.021.194-.071.257-.048.1.037.122.213.125.245a.765.765,0,0,1-.2.52,3.976,3.976,0,0,1-.52.592c-.116.11-.286.261-.514.508-.14.151-.193.221-.174.251.032.05.247-.026.389-.1a1.884,1.884,0,0,0,.574-.473,3.249,3.249,0,0,0,.448-.544,2.64,2.64,0,0,0,.3-1.046A1.409,1.409,0,0,0,150.013,206.995Zm-.269.4c-.044.108-.162.213-.239.185s-.084-.208-.084-.233c0-.18.106-.39.2-.383S149.818,207.216,149.744,207.4Z"/>
                <path id="Path_213" data-name="Path 213" class="cls-3" d="M151.024,206.662a1.644,1.644,0,0,0-.383.255.862.862,0,0,0-.167.439,6.092,6.092,0,0,0-.056.622,1.681,1.681,0,0,1-.112.55,4.276,4.276,0,0,1-.279.446c-.079.113-.121.164-.1.191.032.05.248,0,.406-.119a1.045,1.045,0,0,0,.335-.574,2.254,2.254,0,0,0,.159-.765c0-.234-.04-.4.072-.566a.708.708,0,0,1,.175-.168c.294-.231.43-.2.63-.4a.458.458,0,0,0,.175-.351c0-.027-.014-.109-.063-.128-.1-.037-.2.215-.526.423C151.2,206.571,151.22,206.55,151.024,206.662Z"/>
                <path id="Path_214" data-name="Path 214" class="cls-3" d="M151.534,207.244a.177.177,0,0,0-.064.223c.051.066.212.043.279-.048a.149.149,0,0,0,.024-.151A.178.178,0,0,0,151.534,207.244Z"/>
              </g>
            </g>
            <g id="Group_39" data-name="Group 39">
              <g id="Group_35" data-name="Group 35">
                <g id="Group_33" data-name="Group 33">
                  <path id="Path_215" data-name="Path 215" class="cls-5" d="M117.769,187.978s.394,3.958,1.291,4.855,2.1,1.865,2.248,2.534c.125.585.141,4.493.143,5.47a.407.407,0,0,0,.2.353,3.218,3.218,0,0,0,1.575.427,3.148,3.148,0,0,0,1.469-.352.408.408,0,0,0,.218-.366l-.085-7.357s.064-.622-1.259-1.5a17.15,17.15,0,0,1-1.69-1.769c-.208-.208-.4-.5-.741-.416-.426.1.025.782.138.986a5.62,5.62,0,0,1,.555,1.04,5.181,5.181,0,0,1,.278.917.769.769,0,0,1-.01.262.563.563,0,0,1-.067.173.056.056,0,0,1-.091,0,1.341,1.341,0,0,0-.136-.136c-.11-.108-.224-.212-.34-.313l-.023-.017a10.718,10.718,0,0,1-1.68-1.111.939.939,0,0,1-.188-.437,3.433,3.433,0,0,0-.93-1.871c-.054-.045-.014-.379-.013-.452a2.355,2.355,0,0,0-.453-1.461.434.434,0,0,0-.119-.115C117.665,187.075,117.741,187.816,117.769,187.978Z"/>
                  <path id="Path_216" data-name="Path 216" class="cls-5" d="M118.659,187.8c.014.072.046.144.064.215a4.459,4.459,0,0,1,.106.618q.018.179.024.357a.464.464,0,0,0,.085.319,3.736,3.736,0,0,1,.684,1.223,5.36,5.36,0,0,0,.239.926,2.593,2.593,0,0,0,.723.545c.186.1,1.172.771,1.244.843.035.035.019-.074.018-.085a1.42,1.42,0,0,0-.5-.9,1.376,1.376,0,0,0-.693-.4.18.18,0,0,1-.057-.017c-.054-.029-.067-.161-.081-.216s-.028-.125-.048-.186a5.209,5.209,0,0,0-.186-.5,2.94,2.94,0,0,0-.645-.977q-.063-.06-.132-.114a.229.229,0,0,1-.057-.055c-.031-.048,0-.128,0-.183s0-.137,0-.205c0-.137,0-.274-.009-.411a2.1,2.1,0,0,0-.274-.93c-.08-.142-.426-.479-.511-.153A.7.7,0,0,0,118.659,187.8Z"/>
                  <path id="Path_217" data-name="Path 217" class="cls-5" d="M119.535,187.82a1.761,1.761,0,0,0,.054.428c.031.207.069.412.081.62.008.128-.032.382.068.481a3.854,3.854,0,0,1,.5.707,5.4,5.4,0,0,1,.348.644,3.513,3.513,0,0,1,.13.332c.041.126.049.22.179.288a2.317,2.317,0,0,1,.581.389,1.463,1.463,0,0,1-.169-.354c-.08-.163-.162-.325-.242-.488-.121-.244-.249-.485-.376-.726-.057-.109-.114-.218-.176-.325-.033-.059-.161-.21-.161-.275a2.511,2.511,0,0,0-.382-1.722.5.5,0,0,0-.25-.164C119.593,187.64,119.546,187.716,119.535,187.82Z"/>
                  <path id="Path_218" data-name="Path 218" class="cls-5" d="M120.362,188.016a.418.418,0,0,0,.027.1,2.868,2.868,0,0,1,.2.728,2.589,2.589,0,0,1,.025.384c0,.062,0,.124-.008.186a.282.282,0,0,0,.009.175,1.124,1.124,0,0,0,.126.193c.055.066.077-.034.119-.074a.379.379,0,0,1,.1-.072c.026-.012.112-.016.125-.036a.055.055,0,0,0,.007-.028,4.251,4.251,0,0,0-.035-.628,3.065,3.065,0,0,0-.209-.936.344.344,0,0,0-.358-.238C120.37,187.787,120.347,187.91,120.362,188.016Z"/>
                </g>
                <g id="Group_34" data-name="Group 34">
                  <path id="Path_219" data-name="Path 219" class="cls-5" d="M122.855,201.916a1.88,1.88,0,0,1-.507-.149,5.257,5.257,0,0,1-.568-.331c-.154-.087-.368-.178-.525-.045a.4.4,0,0,0,.062.569,3.152,3.152,0,0,0,1.258.572,2.8,2.8,0,0,0,1.274,0,3.152,3.152,0,0,0,1.258-.572.4.4,0,0,0,.062-.569c-.157-.133-.371-.042-.525.045a5.256,5.256,0,0,1-.568.331,1.88,1.88,0,0,1-.507.149A2.176,2.176,0,0,1,122.855,201.916Z"/>
                  <path id="Path_220" data-name="Path 220" class="cls-5" d="M122.8,202.817a2.574,2.574,0,0,1-.589-.149,6.317,6.317,0,0,1-.659-.331.611.611,0,0,0-.611-.046c-.194.142-.1.445.072.569a3.981,3.981,0,0,0,1.462.573,3.8,3.8,0,0,0,1.48,0,3.981,3.981,0,0,0,1.462-.573c.176-.124.266-.427.072-.569a.611.611,0,0,0-.611.046,6.419,6.419,0,0,1-.659.331,2.574,2.574,0,0,1-.589.149A2.935,2.935,0,0,1,122.8,202.817Z"/>
                  <path id="Path_221" data-name="Path 221" class="cls-5" d="M122.743,203.8a3.13,3.13,0,0,1-.666-.148,7.542,7.542,0,0,1-.745-.332.767.767,0,0,0-.69-.045c-.22.142-.119.445.081.569a4.855,4.855,0,0,0,1.652.572,4.8,4.8,0,0,0,1.674,0,4.855,4.855,0,0,0,1.652-.572c.2-.124.3-.427.081-.569a.766.766,0,0,0-.69.045,7.543,7.543,0,0,1-.745.332,3.143,3.143,0,0,1-.666.148A3.744,3.744,0,0,1,122.743,203.8Z"/>
                </g>
              </g>
              <g id="Group_38" data-name="Group 38">
                <g id="Group_36" data-name="Group 36">
                  <path id="Path_222" data-name="Path 222" class="cls-5" d="M163.713,187.978s-.394,3.958-1.291,4.855-2.1,1.865-2.248,2.534c-.125.585-.141,4.493-.143,5.47a.407.407,0,0,1-.2.353,3.218,3.218,0,0,1-1.575.427,3.148,3.148,0,0,1-1.469-.352.408.408,0,0,1-.218-.366l.085-7.357s-.064-.622,1.259-1.5a17.152,17.152,0,0,0,1.69-1.769c.208-.208.4-.5.741-.416.426.1-.025.782-.139.986a5.676,5.676,0,0,0-.554,1.04,5.27,5.27,0,0,0-.279.917.823.823,0,0,0,.01.262.566.566,0,0,0,.068.173.056.056,0,0,0,.091,0,1.341,1.341,0,0,1,.136-.136c.11-.108.224-.212.34-.313l.022-.017a10.626,10.626,0,0,0,1.68-1.111.93.93,0,0,0,.189-.437,3.431,3.431,0,0,1,.929-1.871c.055-.045.015-.379.014-.452a2.347,2.347,0,0,1,.452-1.461.453.453,0,0,1,.12-.115C163.817,187.075,163.741,187.816,163.713,187.978Z"/>
                  <path id="Path_223" data-name="Path 223" class="cls-5" d="M162.822,187.8c-.013.072-.045.144-.063.215a4.458,4.458,0,0,0-.106.618q-.018.179-.024.357a.464.464,0,0,1-.085.319,3.736,3.736,0,0,0-.684,1.223,5.563,5.563,0,0,1-.239.926,2.583,2.583,0,0,1-.724.545c-.185.1-1.171.771-1.243.843-.036.035-.019-.074-.018-.085a1.42,1.42,0,0,1,.5-.9,1.376,1.376,0,0,1,.693-.4.188.188,0,0,0,.057-.017c.054-.029.067-.161.081-.216s.028-.125.048-.186a5.211,5.211,0,0,1,.186-.5,2.94,2.94,0,0,1,.645-.977q.063-.06.132-.114a.229.229,0,0,0,.057-.055c.03-.048,0-.128,0-.183s0-.137,0-.205c0-.137,0-.274.01-.411a2.1,2.1,0,0,1,.274-.93c.08-.142.426-.479.511-.153A.682.682,0,0,1,162.822,187.8Z"/>
                  <path id="Path_224" data-name="Path 224" class="cls-5" d="M161.947,187.82a1.813,1.813,0,0,1-.054.428c-.031.207-.07.412-.081.62-.008.128.032.382-.068.481a3.855,3.855,0,0,0-.5.707,5.4,5.4,0,0,0-.348.644,3.265,3.265,0,0,0-.13.332c-.041.126-.05.22-.179.288a2.3,2.3,0,0,0-.581.389,1.463,1.463,0,0,0,.169-.354c.08-.163.161-.325.242-.488.121-.244.248-.485.376-.726.057-.109.114-.218.175-.325.034-.059.162-.21.162-.275a2.511,2.511,0,0,1,.382-1.722.5.5,0,0,1,.25-.164C161.889,187.64,161.936,187.716,161.947,187.82Z"/>
                  <path id="Path_225" data-name="Path 225" class="cls-5" d="M161.119,188.016a.374.374,0,0,1-.026.1,2.87,2.87,0,0,0-.2.728,2.73,2.73,0,0,0-.024.384c0,.062,0,.124.008.186a.282.282,0,0,1-.009.175,1.124,1.124,0,0,1-.126.193c-.055.066-.077-.034-.119-.074a.4.4,0,0,0-.1-.072c-.026-.012-.113-.016-.125-.036a.056.056,0,0,1-.007-.028,3.994,3.994,0,0,1,.035-.628,3.093,3.093,0,0,1,.208-.936.345.345,0,0,1,.359-.238C161.112,187.787,161.135,187.91,161.119,188.016Z"/>
                </g>
                <g id="Group_37" data-name="Group 37">
                  <path id="Path_226" data-name="Path 226" class="cls-5" d="M158.627,201.916a1.88,1.88,0,0,0,.507-.149,5.257,5.257,0,0,0,.568-.331c.154-.087.368-.178.525-.045a.4.4,0,0,1-.062.569,3.152,3.152,0,0,1-1.258.572,2.8,2.8,0,0,1-1.274,0,3.152,3.152,0,0,1-1.258-.572.4.4,0,0,1-.062-.569c.157-.133.371-.042.525.045a5.257,5.257,0,0,0,.568.331,1.88,1.88,0,0,0,.507.149A2.176,2.176,0,0,0,158.627,201.916Z"/>
                  <path id="Path_227" data-name="Path 227" class="cls-5" d="M158.685,202.817a2.574,2.574,0,0,0,.589-.149,6.419,6.419,0,0,0,.659-.331.611.611,0,0,1,.611-.046c.194.142.1.445-.072.569a3.981,3.981,0,0,1-1.462.573,3.8,3.8,0,0,1-1.48,0,3.981,3.981,0,0,1-1.462-.573c-.176-.124-.266-.427-.072-.569a.611.611,0,0,1,.611.046,6.317,6.317,0,0,0,.659.331,2.562,2.562,0,0,0,.589.149A2.934,2.934,0,0,0,158.685,202.817Z"/>
                  <path id="Path_228" data-name="Path 228" class="cls-5" d="M158.739,203.8a3.124,3.124,0,0,0,.665-.148,7.46,7.46,0,0,0,.746-.332.766.766,0,0,1,.69-.045c.22.142.119.445-.081.569a4.855,4.855,0,0,1-1.652.572,4.8,4.8,0,0,1-1.674,0,4.855,4.855,0,0,1-1.652-.572c-.2-.124-.3-.427-.081-.569a.767.767,0,0,1,.69.045,7.543,7.543,0,0,0,.745.332,3.13,3.13,0,0,0,.666.148A3.744,3.744,0,0,0,158.739,203.8Z"/>
                </g>
              </g>
            </g>
          </g>
        </g>
      </g>
    </g>
  </g>
</svg>
